<?xml version="1.0" encoding="iso-8859-1"?>
<svg version="1.1" id="&#x421;&#x43B;&#x43E;&#x439;_1"
	 xmlns="http://www.w3.org/2000/svg" xmlns:xlink="http://www.w3.org/1999/xlink" x="0px" y="0px" width="1950px" height="500px"
	 viewBox="0 0 1950 500" style="enable-background:new 0 0 1950 500;" xml:space="preserve">
<g>
	<g>
		<linearGradient id="SVGID_1_" gradientUnits="userSpaceOnUse" x1="3.4055" y1="250" x2="1946.5945" y2="250">
			<stop  offset="0" style="stop-color:#00DDE5"/>
			<stop  offset="0.2254" style="stop-color:#00CEE1"/>
			<stop  offset="0.3398" style="stop-color:#004CBD"/>
			<stop  offset="0.3621" style="stop-color:#044ABC"/>
			<stop  offset="0.3859" style="stop-color:#1144BB"/>
			<stop  offset="0.4102" style="stop-color:#263BB8"/>
			<stop  offset="0.435" style="stop-color:#442DB3"/>
			<stop  offset="0.4602" style="stop-color:#6A1CAE"/>
			<stop  offset="0.4853" style="stop-color:#9907A7"/>
			<stop  offset="0.4933" style="stop-color:#A900A5"/>
			<stop  offset="0.5225" style="stop-color:#AD05A0"/>
			<stop  offset="0.5569" style="stop-color:#B91393"/>
			<stop  offset="0.5939" style="stop-color:#CD2B7D"/>
			<stop  offset="0.6326" style="stop-color:#E84C5F"/>
			<stop  offset="0.6592" style="stop-color:#FF6746"/>
			<stop  offset="0.7081" style="stop-color:#FE6542"/>
			<stop  offset="0.761" style="stop-color:#FA5D35"/>
			<stop  offset="0.8154" style="stop-color:#F4511F"/>
			<stop  offset="0.8597" style="stop-color:#EE4408"/>
		</linearGradient>
		<path style="fill:url(#SVGID_1_);" d="M1279.969,450.518c-12.345,0-30.583-1.438-46.375-13.88
			c-18.03-14.205-28.853-39.659-32.164-75.655c-3.281-35.663-10.389-57.896-24.533-76.736
			c-14.993-19.973-38.102-35.925-70.526-55.19c-34.748-20.646-48.755-62.145-61.113-98.759
			c-12.524-37.107-23.342-69.155-51.633-71.204c-49.076-3.57-58.743,45.456-79.954,152.839
			c-5.433,27.506-11.591,58.683-19.353,93.554c-15.417,69.27-37.196,108.139-68.539,122.322
			c-37.818,17.115-84.853-5.526-129.79-30.185c-50.146-27.515-71.753-14.338-96.771,0.921c-15.713,9.584-32.95,20.094-58.618,20.096
			c-9.758,0-20.729-1.518-33.306-5.184c-51.243-14.935-77.479-93.44-102.851-169.362c-22.233-66.528-43.233-129.367-77.358-134.509
			c-42.273-6.373-66.008,51.156-81.718,89.222c-5.273,12.777-9.438,22.869-13.421,28.595
			c-11.261,16.188-26.483,33.458-64.784,33.458c-45.694,0-162.583-0.241-163.758-0.243l0.017-8
			c1.175,0.002,118.056,0.243,163.742,0.243c34.446,0,47.647-14.833,58.216-30.027c3.487-5.013,7.707-15.238,12.593-27.079
			c8.181-19.821,18.361-44.49,32.474-63.791c17.045-23.312,36.5-33.502,57.831-30.29c38.968,5.873,60.722,70.967,83.753,139.885
			c12.273,36.725,24.964,74.701,40.632,105.111c17.351,33.677,35.953,53.011,56.87,59.107c42.267,12.316,64.255-1.093,85.52-14.062
			c24.866-15.165,50.577-30.85,104.786-1.104c52.663,28.898,91.548,43.979,122.643,29.91
			c28.462-12.881,49.406-51.077,64.028-116.772c7.74-34.777,13.889-65.904,19.313-93.366
			c21.48-108.748,32.246-163.354,88.38-159.268c33.593,2.433,45.757,38.471,58.635,76.625
			c11.914,35.298,25.418,75.306,57.619,94.439c69.564,41.332,92.288,65.769,98.94,138.072c7.568,82.268,53.341,82.268,70.572,82.268
			c25.528,0,61.385-16.587,77.971-160.013c5.553-48.011,15.572-88.039,28.976-115.756c14.483-29.952,33.155-45.783,53.998-45.783
			c24.503,0,37.115,27.565,49.312,54.223c12.097,26.438,24.604,53.777,47.688,53.777c40.068,0,51.256-47.084,62.075-92.617
			c9.545-40.169,18.56-78.111,46.956-85.197c13.912-3.474,26.485-1.519,37.372,5.802c34.135,22.954,44.318,94.05,51.057,141.096
			c4.317,30.15,15.257,53.46,32.512,69.282c18.838,17.273,45.411,25.705,78.991,25.091c66.845-1.244,99.396,0.183,99.718,0.197
			l-0.361,7.992c-0.319-0.014-32.665-1.428-99.208-0.191c-68.55,1.277-109.902-33.731-119.571-101.237
			c-6.537-45.644-16.417-114.622-47.601-135.591c-9.056-6.09-19.187-7.619-30.971-4.679c-23.675,5.908-32.144,41.55-41.11,79.285
			c-5.582,23.492-11.354,47.785-21.301,66.328c-11.709,21.829-27.593,32.439-48.558,32.439c-28.221,0-41.815-29.713-54.963-58.449
			c-11.659-25.482-22.671-49.551-42.037-49.551c-35.794,0-63.841,57.742-75.026,154.458
			c-7.701,66.596-20.088,111.951-37.866,138.659C1311.055,447.57,1292.472,450.518,1279.969,450.518z"/>
	</g>
</g>
</svg>
