<?xml version="1.0" encoding="utf-8"?>
<!-- Generator: Adobe Illustrator 22.0.1, SVG Export Plug-In . SVG Version: 6.00 Build 0)  -->
<svg version="1.1" id="Слой_1" xmlns="http://www.w3.org/2000/svg" xmlns:xlink="http://www.w3.org/1999/xlink" x="0px" y="0px"
	 viewBox="0 0 500 500" style="enable-background:new 0 0 500 500;" xml:space="preserve">
<style type="text/css">
	.st0{fill:#F5B0C2;}
</style>
<g>
	<path class="st0" d="M458.5,378.3l-79.6-39.8c-7.5-3.8-12.2-11.3-12.2-19.7v-28.2c1.9-2.4,3.9-5,6-7.9
		c10.3-14.6,18.6-30.8,24.6-48.3c11.8-5.4,19.4-17,19.4-30.1v-33.4c0-8-3-15.8-8.3-21.8v-44.4c0.5-4.6,2.3-31.9-17.4-54.4
		c-17.1-19.5-44.9-29.4-82.6-29.4c-37.7,0-65.5,9.9-82.6,29.4c-11.9,13.6-15.9,29-17.2,40c-14.3-7.4-31.1-11.1-50.3-11.1
		c-86.5,0-91.6,73.8-91.7,75v38.2c-5.4,5.9-8.3,12.7-8.3,19.4v28.8c0,9,4,17.4,10.9,23c6.9,25.9,23.8,45.5,30.4,52.4v22.8
		c0,6.6-3.5,12.6-9.7,16l-55.5,34.7C13.2,401.1,0,423.3,0,447.5v31.7h500v-33.7C500,416.8,484.1,391.1,458.5,378.3L458.5,378.3z
		 M116.7,443.8v18.6h-100v-15c0-18.1,9.8-34.7,26.2-43.6l55.4-34.8c11.1-6.1,18-17.7,18-30.4v-29.9l-2.6-2.5
		c-0.2-0.2-22.4-21.1-28.9-49.6l-0.7-3.3l-2.8-1.8c-3.8-2.5-6.1-6.6-6.1-11.1v-28.8c0-3,2-6.6,5.6-9.8l2.7-2.4v-44.8
		c0.1-2.4,4.5-58.8,75-58.8c19.9,0,36.7,4.6,50,13.7V149c-5.3,6.1-8.3,13.8-8.3,21.8v33.4c0,2.5,0.3,5,0.9,7.4c0.2,1,0.7,1.9,1,2.8
		c0.4,1.4,0.8,2.8,1.5,4.1c0,0,0,0,0,0c2.1,4.4,5.2,8.3,9.1,11.5c0,0.2,0.1,0.3,0.1,0.4c0.5,1.9,1,3.8,1.6,5.7l0.7,2.2
		c0.1,0.4,0.2,0.8,0.4,1.2c0.3,0.9,0.6,1.8,0.9,2.6c0.5,1.5,1,3,1.6,4.6c0.3,0.7,0.5,1.3,0.8,2c0.7,1.8,1.3,3.4,2.1,5.1
		c0.2,0.4,0.3,0.9,0.5,1.2l0.5,1.1c0.2,0.5,0.4,0.9,0.7,1.4c0.8,1.8,1.6,3.5,2.4,5.2c0.1,0.2,0.3,0.5,0.4,0.8c0.5,1,1,2,1.6,3
		c0.9,1.7,1.8,3.3,2.7,4.9c0.4,0.7,0.9,1.5,1.3,2.2c1.2,2,2.4,3.9,3.5,5.7c0.2,0.4,0.5,0.8,0.7,1.1c2,3.1,3.7,5.7,5.2,7.6
		c0.4,0.5,0.7,1,1,1.4c0.2,0.2,0.4,0.6,0.6,0.8v27.6c0,8.1-4.4,15.5-11.5,19.3l-22.1,12l-3.8-0.4l-1.6,3.3l-46.9,25.6
		C131.7,391,116.7,416.3,116.7,443.8L116.7,443.8z M483.3,462.5h-350v-18.6c0-21.4,11.7-41.1,30.5-51.3l74.3-40.6
		c12.5-6.8,20.2-19.8,20.2-34v-33.5l-1.6-1.9l-0.3-0.4c0,0-0.5-0.7-1.4-1.8c0,0-0.1-0.1-0.1-0.2c-0.4-0.6-1-1.3-1.6-2.1c0,0,0,0,0,0
		c-1.3-1.7-2.8-4-4.6-6.7c0,0,0-0.1-0.1-0.2c-0.8-1.3-1.7-2.7-2.6-4.1c-0.1-0.1-0.2-0.2-0.2-0.3c-1.9-3.2-3.9-6.8-5.9-10.7
		c0,0,0,0,0,0c-1.1-2.1-2.1-4.4-3.1-6.7c-0.2-0.3-0.3-0.7-0.4-1c-0.4-1-0.9-2.1-1.4-3.3c-0.2-0.4-0.3-0.8-0.5-1.2
		c-0.4-1.1-0.9-2.2-1.3-3.5c-0.9-2.3-1.7-4.6-2.4-7.1l-0.4-1.5c0-0.2-0.1-0.4-0.2-0.5c-0.8-2.6-1.6-5.3-2.2-8.1l-0.8-3.3l-2.8-1.8
		c-4.8-3.1-7.7-8.3-7.7-13.9v-33.4c0-4.6,2-9,5.6-12.3l2.8-2.5v-54.8l-0.3-0.2c-0.3-6,0.1-24.4,13.5-39.8
		c13.8-15.8,37.4-23.7,70.1-23.7c32.5,0,56,7.9,69.9,23.6c16.2,18.4,13.5,41.8,13.5,42l0,53l2.7,2.5c3.6,3.2,5.6,7.6,5.6,12.2v33.4
		c0,7.2-4.8,13.6-11.8,15.8l-4.2,1.3l-1.3,4.1c-5.6,17.3-13.5,33.4-23.6,47.6c-2.5,3.5-4.9,6.6-7,9l-2.1,2.4v34.4
		c0,14.8,8.2,28,21.4,34.6l79.6,39.8c19.9,10,32.3,30,32.3,52.3V462.5z M483.3,462.5"/>
</g>
</svg>
