<?xml version="1.0" encoding="utf-8"?>
<!-- Generator: Adobe Illustrator 22.0.1, SVG Export Plug-In . SVG Version: 6.00 Build 0)  -->
<svg version="1.1" id="Слой_1" xmlns="http://www.w3.org/2000/svg" xmlns:xlink="http://www.w3.org/1999/xlink" x="0px" y="0px"
	 viewBox="0 0 500 500" style="enable-background:new 0 0 500 500;" xml:space="preserve">
<style type="text/css">
	.st0{fill:#F5B0C2;}
</style>
<g>
	<path class="st0" d="M158.3,375c18.4,0,33.3-14.9,33.3-33.3c0-18.4-14.9-33.3-33.3-33.3c-18.4,0-33.3,14.9-33.3,33.3
		C125,360.1,139.9,375,158.3,375L158.3,375z M158.3,325c9.2,0,16.7,7.5,16.7,16.7c0,9.2-7.5,16.6-16.7,16.6
		c-9.2,0-16.6-7.4-16.6-16.6C141.7,332.5,149.1,325,158.3,325L158.3,325z M158.3,325"/>
	<path class="st0" d="M366.7,100c-18.4,0-33.3,14.9-33.3,33.3c0,18.4,14.9,33.3,33.3,33.3c18.4,0,33.3-14.9,33.3-33.3
		C400,114.9,385.1,100,366.7,100L366.7,100z M366.7,150c-9.2,0-16.6-7.4-16.6-16.6c0-9.2,7.4-16.7,16.6-16.7
		c9.2,0,16.7,7.5,16.7,16.7C383.3,142.5,375.9,150,366.7,150L366.7,150z M366.7,150"/>
	<path class="st0" d="M158.3,408.3c36.8,0,66.7-29.9,66.7-66.6c0-36.8-29.9-66.7-66.7-66.7c-36.7,0-66.6,29.9-66.6,66.7
		C91.7,378.4,121.6,408.3,158.3,408.3L158.3,408.3z M158.3,291.7c27.6,0,50,22.4,50,50c0,27.5-22.4,50-50,50c-27.5,0-50-22.5-50-50
		C108.3,314.1,130.8,291.7,158.3,291.7L158.3,291.7z M158.3,291.7"/>
	<path class="st0" d="M493.2,307.6c1-4.2,1.9-8.5,2.7-12.8c0-0.3,0.1-0.4,0.2-0.7c0,0,0-0.1,0-0.1c2.5-14.3,3.9-29,3.9-44
		c0-34.4-7-67.1-19.6-97c-0.1-0.1-0.1-0.3-0.1-0.4c-9.7-22.8-22.8-44-38.7-62.9c-9.3-11.1-19.6-21.4-30.7-30.8
		c-19-16.1-40.4-29.4-63.5-39.2c-0.1,0-0.2,0-0.4-0.1C317.2,7,284.4,0,250,0c-14.5,0-28.7,1.3-42.5,3.7h-0.1c-0.2,0-0.4,0.1-0.7,0.1
		c-3.4,0.6-6.8,1.2-10.1,2c-0.2,0-0.4,0.1-0.6,0.1c-13.3,2.9-26.2,7-38.6,11.9c-1.2,0.4-2.3,0.9-3.5,1.3c-1.9,0.8-3.7,1.6-5.5,2.4
		c-1.8,0.8-3.6,1.6-5.4,2.4c-1.5,0.7-2.9,1.4-4.3,2.1c-0.4,0.2-0.8,0.4-1.2,0.6c-0.1,0-0.2,0-0.3,0.1c-0.5,0.2-1,0.5-1.5,0.8
		c-1.1,0.6-2.3,1.2-3.5,1.8c-1,0.6-2,1.1-3.1,1.7c-1.2,0.7-2.4,1.3-3.6,2c-1.4,0.8-2.7,1.6-4.1,2.4c-0.7,0.4-1.4,0.9-2.1,1.3
		c-2.9,1.8-5.8,3.6-8.6,5.5c-0.3,0.2-0.6,0.4-0.9,0.6c-1.5,1-3,2-4.4,3c-0.2,0.2-0.4,0.3-0.6,0.4c-3.1,2.2-6.1,4.5-9.2,6.9
		c-0.1,0-0.2,0.1-0.3,0.2c0,0,0,0-0.1,0c-13.7,10.8-26.3,23-37.6,36.6c-0.2,0.2-0.2,0.4-0.3,0.6C21.6,134,0,189.5,0,250
		c0,24.9,3.7,49.1,10.6,71.8c0,0,0,0.1,0,0.2c0.1,0.3,0.2,0.5,0.2,0.8c1.4,4.5,2.9,9,4.5,13.4c0.6,1.6,1.2,3.1,1.8,4.7
		c1,2.6,2,5.2,3.1,7.7c1.1,2.6,2.3,5.2,3.5,7.7c0.6,1.2,1.1,2.4,1.7,3.5c24.4,50,64.7,90.3,114.7,114.7c1.1,0.5,2.2,1.1,3.4,1.6
		c2.6,1.2,5.2,2.4,7.9,3.6c2.4,1.1,4.8,2,7.3,3c1.7,0.6,3.3,1.3,5,2c4.4,1.6,8.8,3.1,13.3,4.4c0.3,0.1,0.6,0.2,0.9,0.3
		c0.1,0,0.2,0,0.3,0c22.7,6.8,46.8,10.5,71.7,10.5c41.6,0,80.9-10.3,115.4-28.4c0.2-0.1,0.4-0.1,0.7-0.2c0.6-0.3,1.2-0.7,1.8-1
		c2-1.1,4-2.2,6-3.4c1.9-1.1,3.7-2.1,5.6-3.2c3.5-2.1,7-4.4,10.4-6.7c1.5-1,2.9-2,4.3-3.1c2.3-1.6,4.5-3.2,6.7-4.9
		c1.3-1,2.5-1.9,3.7-2.9c2.4-2,4.9-3.9,7.2-5.9c0.9-0.8,1.8-1.5,2.6-2.3c2.9-2.5,5.7-5.1,8.5-7.8c0.3-0.3,0.7-0.6,1-0.9
		c4-3.9,7.9-7.9,11.7-12c0.1-0.1,0.3-0.2,0.4-0.3c18.5-20.6,33.3-43.9,44.1-69.3c0.4-0.9,0.7-1.8,1.1-2.8c0.9-2.2,1.8-4.4,2.6-6.6
		c0-0.1,0-0.2,0-0.3c3.6-9.6,6.7-19.4,9.1-29.6C493.1,308.2,493.2,307.9,493.2,307.6L493.2,307.6z M408.6,420.9
		c-2.1,2-4.2,3.8-6.3,5.7c-0.9,0.7-1.6,1.5-2.5,2.2c-1.7,1.4-3.4,2.8-5.2,4.2c-1.3,1.1-2.6,2.1-4,3.1c-1.3,1-2.7,2-4,3
		c-1.3,0.9-2.5,1.8-3.8,2.7c1.8-8,1.1-16.5-2.4-24.2c-5.4-12.4-16.6-21.1-30-23.1l-8.7-1.3v-14.8l8.3-1.6
		c13.3-2.6,24.2-11.6,29.2-24.3c5-12.6,3.1-26.6-4.9-37.6l-5.2-7.1l10.5-10.5l10.7,7.3c11,7.4,24.8,8.8,37.1,3.8
		c12.2-5.1,21.1-15.9,23.6-28.9l2.4-12.6H468l1.3,8.7c1.2,7.6,4.4,14.5,9.5,20.1c-2,10.3-4.8,20.3-8.2,30.1
		c-2.7-0.4-5.4-0.6-8.1-0.6c-29.9,0-54.2,24.3-54.2,54.2c0,11.6,3.7,22.5,10.4,31.7c-3,3.1-6,6.2-9.1,9.1
		C409.3,420.3,409,420.6,408.6,420.9L408.6,420.9z M461.1,349.2c-8.3,17.5-18.7,33.9-31,48.8c-3.3-5.7-5.1-12.1-5.1-18.8
		c0-20.7,16.8-37.5,37.5-37.5c0.7,0,1.3,0,1.9,0c-0.9,2.2-1.9,4.4-2.9,6.5C461.3,348.6,461.2,348.9,461.1,349.2L461.1,349.2z
		 M366.7,233.3c-55.1,0-100-44.8-100-100c0-46.1,32-86.5,76.5-97.2c16.2,7.1,31.5,16,45.6,26.4c0.3,0.2,0.5,0.4,0.8,0.6
		c2.3,1.7,4.5,3.5,6.8,5.3c0.7,0.6,1.5,1.1,2.2,1.7c1.7,1.4,3.3,2.8,4.9,4.2c1.2,1.1,2.4,2,3.5,3.1c0.6,0.6,1.2,1.2,1.8,1.8
		c4.2,3.9,8.3,8,12.2,12.3c0.4,0.5,0.9,0.9,1.4,1.4c1.1,1.2,2.2,2.5,3.3,3.7c1.4,1.6,2.8,3.2,4.1,4.8c0.6,0.7,1.2,1.5,1.8,2.2
		c1.8,2.2,3.5,4.4,5.3,6.7c0.2,0.3,0.4,0.6,0.6,0.9c10.4,14,19.3,29.3,26.4,45.5C453.1,201.3,412.7,233.3,366.7,233.3L366.7,233.3z
		 M193.6,23.6c-1.3,6.2-0.8,12.8,1.6,18.9c4.2,10.6,13.4,18.2,24.5,20.4l5.3,1V73l-5.6,0.9c-11.3,1.7-20.8,9-25.3,19.4
		c-4.6,10.5-3.5,22.3,2.9,31.8l3,4.5l-6.4,6.4l-1.5-1.1c-9.4-6.9-21.5-8.3-32.3-3.9c-10.7,4.4-18.3,14-20,25.5l-0.3,1.8h-9l-1-5.3
		c-2.2-11.2-9.8-20.4-20.4-24.6c-10.6-4.1-22.5-2.6-31.7,4.1l-4.5,3.3l-6.4-6.4l3-4.4c5.7-8.3,7.1-18.4,4.3-27.9
		c0.8-0.9,1.6-1.9,2.5-2.9c2.1-2.4,4.3-4.7,6.5-6.9c2.3-2.4,4.6-4.7,7-6.9c1.1-1.1,2.2-2.1,3.4-3.1c4.8,17.7,20.8,30.9,40.1,30.9
		c22.9,0,41.7-18.7,41.7-41.7c0-12.7-5.8-24.2-15.1-31.9c5.1-2.2,10.3-4.1,15.6-5.9c0.5-0.2,1.1-0.4,1.6-0.5
		C182.5,26.6,188,25,193.6,23.6L193.6,23.6z M108.4,64.8c0.7-0.5,1.3-1.1,2-1.6c3.3-2.5,6.8-4.8,10.3-7.2c1.7-1.1,3.3-2.3,5-3.3
		c0.2-0.2,0.4-0.3,0.7-0.4c3.5-2.2,7.1-4.2,10.8-6.2c1.6-0.9,3.1-1.8,4.8-2.7c9.8,3.6,16.4,12.8,16.4,23.4c0,13.8-11.2,25-25,25
		c-13.8,0-25-11.2-25-25C108.3,66,108.4,65.4,108.4,64.8L108.4,64.8z M109.3,217.7c0.2-0.1,0.5,0,0.7-0.2c0.3-0.1,0.5-0.4,0.8-0.5
		c14.8-5.6,30.8-8.7,47.5-8.7c73.5,0,133.3,59.8,133.3,133.3c0,19.1-4.1,37.3-11.3,53.8c-0.1,0.1-0.2,0.2-0.3,0.4
		c-0.1,0.2,0,0.4-0.1,0.6c-17.7,39.4-53.9,68.8-99,76.5c0,0,0,0-0.1,0c-4.1-1.3-8.1-2.7-12.2-4.2c-1.9-0.7-3.7-1.4-5.5-2.2
		c-2-0.8-3.8-1.5-5.7-2.4c-2.5-1.1-4.9-2.2-7.4-3.3c-0.9-0.4-1.8-0.9-2.7-1.3c-46.4-22.8-84.2-60.6-107-107
		c-0.4-0.9-0.9-1.7-1.3-2.6c-1.2-2.4-2.3-4.9-3.4-7.4c-0.8-1.9-1.6-3.8-2.4-5.7c-0.7-1.8-1.5-3.7-2.2-5.6c-1.5-4-2.9-8.1-4.1-12.2v0
		C35.2,271.8,67,234.2,109.3,217.7L109.3,217.7z M214.4,480.6c34-13.5,61.3-38.7,77.5-70.5l13.1,5.8c1.1,0.5,2.3,0.7,3.4,0.7
		c3.2,0,6.2-1.8,7.6-5c1.9-4.2,0-9.1-4.2-11l-13-5.8c6.2-16.6,9.6-34.5,9.6-53.3c0-16.2-2.7-31.9-7.5-46.5l10.5-4.1
		c4.3-1.7,6.4-6.5,4.7-10.8c-1.6-4.3-6.5-6.4-10.8-4.7l-10.5,4.1c-14-30.7-38.1-55.9-68-71.3l5.9-13.3c1.9-4.2,0-9.2-4.2-11
		c-4.2-1.8-9.2,0-11,4.2l-5.9,13.3c-16.5-6.3-34.4-9.9-53.1-9.9c-16.2,0-31.8,2.7-46.5,7.4l-4.1-10.5c-1.6-4.3-6.5-6.4-10.8-4.7
		c-4.3,1.6-6.4,6.5-4.7,10.8l4,10.4c-34.8,15.7-62.5,44.3-76.9,80.6c-1.8-11.6-2.7-23.5-2.7-35.6c0-42.5,11.4-82.3,31.4-116.7
		c0.4,1.1,1,2.2,1.9,3.1l16.3,16.3c2.9,2.9,7.5,3.2,10.8,0.8l10.3-7.5c4.6-3.4,10.4-4.1,15.7-2c5.4,2.1,9.1,6.5,10.1,12.2l2.3,12
		c0.8,3.9,4.2,6.8,8.2,6.8h23.1c4.1,0,7.6-3,8.2-7.1l1.3-8.9c0.9-5.7,4.6-10.5,10-12.7c5.3-2.3,11.4-1.5,16,1.9l7.2,5.3
		c3.3,2.4,7.9,2.1,10.8-0.8l16.3-16.3c2.8-2.8,3.3-7.3,1-10.6l-6.9-10.1c-3.2-4.8-3.7-10.5-1.5-15.8c2.3-5.3,6.9-8.8,12.6-9.7
		l12.6-2c4.1-0.6,7.1-4.1,7.1-8.2V57.1c0-4-2.8-7.4-6.7-8.2l-12-2.3c-5.6-1.1-10.1-4.8-12.2-10.1c-2.1-5.4-1.4-11.1,2-15.7l0.9-1.2
		c11.9-1.9,24-2.8,36.4-2.8c24,0,47.1,3.6,68.9,10.4c-10.4,4.7-20,10.8-28.5,18.2l-6.2-6.2c-3.2-3.3-8.5-3.3-11.8,0
		c-3.2,3.3-3.2,8.5,0,11.8l6.3,6.3c-16.2,18.7-26.4,42.3-28.3,67.9h-8.7c-4.6,0-8.3,3.7-8.3,8.3c0,4.6,3.7,8.3,8.3,8.3h8.7
		c1.9,25.9,12.1,49.5,28.2,67.9l-6.2,6.2c-3.2,3.2-3.2,8.5,0,11.8c1.6,1.6,3.8,2.5,5.9,2.5c2.2,0,4.3-0.9,5.9-2.5l6.2-6.2
		c18.5,16,42.1,26.3,67.9,28.2v8.8c0,4.6,3.7,8.3,8.3,8.3c4.6,0,8.3-3.7,8.3-8.3v-8.7c25.6-1.8,49.2-12.1,67.9-28.3l6.3,6.3
		c1.6,1.6,3.7,2.4,5.9,2.4c2.2,0,4.3-0.8,5.9-2.4c3.3-3.3,3.3-8.6,0-11.8l-6.2-6.2c7.4-8.5,13.5-18.1,18.2-28.5
		c6.8,21.8,10.4,44.9,10.4,68.9c0,2.2-0.1,4.3-0.2,6.4c-0.9-3.7-4.1-6.4-8-6.4h-28.8c-4,0-7.4,2.8-8.2,6.8l-3.7,19.5
		c-1.5,7.6-6.4,13.7-13.6,16.6c-7.2,3-14.9,2.2-21.4-2.2l-16.4-11.1c-3.3-2.2-7.8-1.8-10.6,1l-20.4,20.4c-2.9,2.9-3.3,7.5-0.9,10.8
		l9.4,12.9c4.6,6.3,5.7,14.4,2.8,21.6c-2.8,7.3-9.2,12.5-16.8,14l-15.1,2.9c-3.9,0.8-6.8,4.2-6.8,8.2v28.8c0,4.1,3,7.6,7.1,8.3
		l15.8,2.4c7.7,1.2,14.2,6.2,17.3,13.3c3.1,7.1,2.4,15.3-2,21.7l-8.5,12.6c-31.5,15.8-67,24.8-104.6,24.8
		C237.9,483.3,226,482.4,214.4,480.6L214.4,480.6z M214.4,480.6"/>
</g>
</svg>
