<?xml version="1.0" encoding="utf-8"?>
<!-- Generator: Adobe Illustrator 22.0.1, SVG Export Plug-In . SVG Version: 6.00 Build 0)  -->
<svg version="1.1" id="Слой_1" xmlns="http://www.w3.org/2000/svg" xmlns:xlink="http://www.w3.org/1999/xlink" x="0px" y="0px"
	 viewBox="0 0 500 500" style="enable-background:new 0 0 500 500;" xml:space="preserve">
<style type="text/css">
	.st0{fill:#F5B0C2;}
</style>
<g>
	<path class="st0" d="M250,74.1c-86.8,0-157.4,70.6-157.4,157.4c0,65.9,40.6,124.2,101.9,147.2V463c0,5.1,4.1,9.3,9.3,9.3h9.2v18.5
		c0,5.2,4.2,9.3,9.3,9.3h55.6c5.1,0,9.3-4.1,9.3-9.3v-18.5h9.3c5.1,0,9.2-4.2,9.2-9.3v-84.3c61.2-23,101.9-81.3,101.9-147.2
		C407.4,144.7,336.8,74.1,250,74.1L250,74.1z M277.8,453.7c-5.1,0-9.3,4.2-9.3,9.3v18.5h-37V463c0-5.1-4.2-9.3-9.3-9.3h-9.3v-46.3
		H287v46.3H277.8z M293.4,363.4c-3.8,1.2-6.4,4.8-6.4,8.8v16.8h-74.1v-16.8c0-4-2.5-7.5-6.4-8.8c-57.1-18.8-95.4-71.8-95.4-131.9
		c0-76.6,62.3-138.9,138.9-138.9c76.6,0,138.9,62.3,138.9,138.9C388.9,291.6,350.5,344.6,293.4,363.4L293.4,363.4z M293.4,363.4"/>
	<path class="st0" d="M250,55.6c5.1,0,9.2-4.2,9.2-9.3v-37c0-5.1-4.1-9.3-9.2-9.3c-5.2,0-9.3,4.2-9.3,9.3v37
		C240.7,51.4,244.8,55.6,250,55.6L250,55.6z M250,55.6"/>
	<path class="st0" d="M472.2,222.2h-37c-5.2,0-9.3,4.2-9.3,9.3c0,5.1,4.1,9.3,9.3,9.3h37c5.1,0,9.3-4.2,9.3-9.3
		C481.5,226.4,477.3,222.2,472.2,222.2L472.2,222.2z M472.2,222.2"/>
	<path class="st0" d="M64.8,222.2H27.7c-5.1,0-9.2,4.2-9.2,9.3c0,5.1,4.1,9.3,9.2,9.3h37.1c5.1,0,9.2-4.2,9.2-9.3
		C74,226.4,69.9,222.2,64.8,222.2L64.8,222.2z M64.8,222.2"/>
	<path class="st0" d="M400.5,67.8L374.4,94c-3.6,3.6-3.6,9.4,0,13.1c1.8,1.8,4.2,2.7,6.6,2.7c2.4,0,4.7-0.9,6.6-2.7l26.2-26.2
		c3.6-3.6,3.6-9.4,0-13.1C410.1,64.2,404.2,64.2,400.5,67.8L400.5,67.8z M400.5,67.8"/>
	<path class="st0" d="M112.5,355.9l-26.2,26.2c-3.6,3.6-3.6,9.4,0,13.1c1.8,1.8,4.2,2.7,6.6,2.7c2.4,0,4.8-0.9,6.6-2.7l26.2-26.2
		c3.6-3.6,3.6-9.5,0-13.1C122,352.3,116.1,352.3,112.5,355.9L112.5,355.9z M112.5,355.9"/>
	<path class="st0" d="M387.5,355.9c-3.6-3.6-9.5-3.6-13.1,0c-3.6,3.6-3.6,9.4,0,13.1l26.2,26.2c1.8,1.8,4.2,2.7,6.6,2.7
		c2.4,0,4.7-0.9,6.6-2.7c3.6-3.6,3.6-9.5,0-13.1L387.5,355.9z M387.5,355.9"/>
	<path class="st0" d="M112.5,107.1c1.8,1.8,4.2,2.7,6.6,2.7c2.4,0,4.7-0.9,6.6-2.7c3.6-3.6,3.6-9.4,0-13.1L99.4,67.8
		c-3.6-3.7-9.5-3.7-13.1,0c-3.6,3.6-3.6,9.5,0,13.1L112.5,107.1z M112.5,107.1"/>
	<path class="st0" d="M250,120.3c-61.3,0-111.1,49.9-111.1,111.1c0,5.1,4.2,9.3,9.3,9.3c5.1,0,9.3-4.2,9.3-9.3
		c0-51,41.5-92.6,92.6-92.6c5.1,0,9.2-4.2,9.2-9.3C259.2,124.5,255.1,120.3,250,120.3L250,120.3z M250,120.3"/>
</g>
</svg>
