<?xml version="1.0" encoding="utf-8"?>
<!-- Generator: Adobe Illustrator 22.0.1, SVG Export Plug-In . SVG Version: 6.00 Build 0)  -->
<svg version="1.1" id="Слой_1" xmlns="http://www.w3.org/2000/svg" xmlns:xlink="http://www.w3.org/1999/xlink" x="0px" y="0px"
	 viewBox="0 0 500 500" style="enable-background:new 0 0 500 500;" xml:space="preserve">
<style type="text/css">
	.st0{fill:#F5B0C2;}
</style>
<path class="st0" d="M102,486.5c-1.9,0-3.7-0.6-5.2-1.7c-2.7-2-4.1-5.3-3.5-8.7L120.8,316L4.4,202.6c-2.4-2.4-3.3-5.9-2.3-9.1
	c1-3.2,3.8-5.6,7.2-6l160.8-23.4L242,18.4c1.5-3,4.6-4.9,8-4.9c3.4,0,6.5,1.9,7.9,4.9l71.9,145.7l160.8,23.4c3.3,0.5,6.1,2.8,7.2,6
	c1,3.2,0.2,6.8-2.3,9.1L379.3,316l27.5,160.2c0.6,3.3-0.8,6.7-3.6,8.7c-2.7,2-6.3,2.3-9.3,0.6L250,409.9l-143.8,75.6
	C104.9,486.2,103.4,486.5,102,486.5L102,486.5z M29.7,202.4l106.8,104.1c2.1,2,3,5,2.6,7.9l-25.2,147l132-69.4
	c2.6-1.3,5.6-1.3,8.2,0l132,69.4l-25.2-147c-0.5-2.9,0.5-5.8,2.6-7.9l106.8-104.1L322.7,181c-2.9-0.4-5.4-2.3-6.7-4.9L250,42.4
	l-66,133.7c-1.3,2.6-3.8,4.5-6.7,4.9L29.7,202.4z M29.7,202.4"/>
</svg>
