<?xml version="1.0" encoding="utf-8"?>
<!-- Generator: Adobe Illustrator 22.0.1, SVG Export Plug-In . SVG Version: 6.00 Build 0)  -->
<svg version="1.1" id="Слой_1" xmlns="http://www.w3.org/2000/svg" xmlns:xlink="http://www.w3.org/1999/xlink" x="0px" y="0px"
	 viewBox="0 0 500 500" style="enable-background:new 0 0 500 500;" xml:space="preserve">
<style type="text/css">
	.st0{fill:#F5B0C2;}
</style>
<path class="st0" d="M357.1,0c-78.8,0-142.9,64.1-142.9,142.9c0,29.3,8.9,56.6,24.2,79.3L2.6,458c-3.5,3.5-3.5,9.1,0,12.6
	c1.8,1.7,4,2.6,6.3,2.6c2.3,0,4.6-0.9,6.3-2.6l38.3-38.3l65.1,65.1c1.7,1.8,4.1,2.6,6.3,2.6c2.3,0,4.6-0.9,6.3-2.6
	c3.5-3.5,3.5-9.2,0-12.6l-65.1-65.1l32-32.1l47.3,47.3c1.7,1.7,4,2.6,6.3,2.6c2.3,0,4.5-0.9,6.3-2.6c3.5-3.5,3.5-9.1,0-12.6
	L110.8,375l32-32.1l65.1,65.1c1.7,1.8,4.1,2.6,6.3,2.6c2.3,0,4.6-0.9,6.3-2.6c3.5-3.5,3.5-9.2,0-12.6l-65.1-65.1l93.9-93.9
	c26.2,30.1,64.7,49.3,107.7,49.3c78.8,0,142.9-64.1,142.9-142.9C500,64.1,435.9,0,357.1,0L357.1,0z M357.1,267.9
	c-68.9,0-125-56.1-125-125c0-68.9,56.1-125,125-125c68.9,0,125,56.1,125,125C482.1,211.8,426.1,267.9,357.1,267.9L357.1,267.9z
	 M357.1,267.9"/>
</svg>
