<?xml version="1.0" encoding="utf-8"?>
<!-- Generator: Adobe Illustrator 22.0.1, SVG Export Plug-In . SVG Version: 6.00 Build 0)  -->
<svg version="1.1" id="Слой_1" xmlns="http://www.w3.org/2000/svg" xmlns:xlink="http://www.w3.org/1999/xlink" x="0px" y="0px"
	 viewBox="0 0 500 500" style="enable-background:new 0 0 500 500;" xml:space="preserve">
<style type="text/css">
	.st0{fill:#F5B0C2;}
</style>
<g>
	<path class="st0" d="M400.1,357.4l-79.6-39.8c-7.5-3.8-12.2-11.3-12.2-19.7v-28.2c1.9-2.4,3.9-5,6-7.9
		c10.3-14.6,18.6-30.8,24.6-48.3c11.8-5.4,19.4-17,19.4-30.1V150c0-8-3-15.8-8.3-21.8V83.8c0.4-4.6,2.3-31.9-17.5-54.4
		C315.4,9.9,287.7,0,250,0c-37.7,0-65.4,9.9-82.6,29.4c-19.7,22.5-17.9,49.8-17.5,54.4v44.4c-5.3,6.1-8.3,13.8-8.3,21.8v33.4
		c0,10.1,4.6,19.6,12.4,25.9c7.6,30.2,23.6,53,29.2,60.3v27.6c0,8.1-4.4,15.5-11.5,19.3L97.5,357c-24.2,13.2-39.2,38.5-39.2,66v27
		c0,39.6,125.4,50,191.6,50c66.3,0,191.6-10.5,191.6-50v-25.3C441.6,396,425.7,370.2,400.1,357.4L400.1,357.4z M425,450
		c0,11.3-61.8,33.3-175,33.3c-113.2,0-175-22-175-33.3v-27c0-21.4,11.7-41.1,30.5-51.3l74.3-40.6c12.4-6.8,20.1-19.8,20.1-34v-33.5
		l-1.9-2.3c-0.2-0.3-20.6-24.9-28.4-58.9l-0.8-3.3l-2.8-1.8c-4.8-3.1-7.7-8.3-7.7-13.9V150c0-4.6,2-9,5.6-12.3l2.8-2.5V83.3
		l-0.1-1.1c0-0.2-2.8-23.3,13.4-41.8c13.8-15.7,37.4-23.7,70-23.7c32.6,0,56.1,7.9,69.9,23.6c16.2,18.4,13.6,41.8,13.6,42l-0.1,53
		l2.8,2.5c3.6,3.2,5.6,7.6,5.6,12.2v33.4c0,7.2-4.8,13.6-11.8,15.8l-4.1,1.3l-1.3,4.1c-5.6,17.3-13.5,33.4-23.6,47.6
		c-2.4,3.5-4.9,6.6-7,9l-2.1,2.4v34.4c0,14.8,8.2,28,21.4,34.6l79.6,39.8c19.9,10,32.4,30,32.4,52.3V450z M425,450"/>
</g>
</svg>
