<?xml version="1.0" encoding="utf-8"?>
<!-- Generator: Adobe Illustrator 21.0.0, SVG Export Plug-In . SVG Version: 6.00 Build 0)  -->
<svg version="1.1" id="Слой_1" xmlns="http://www.w3.org/2000/svg" xmlns:xlink="http://www.w3.org/1999/xlink" x="0px" y="0px"
	 viewBox="0 0 338.8 512" style="enable-background:new 0 0 338.8 512;" xml:space="preserve">
<style type="text/css">
	.st0{fill:#ED2984;}
	.st1{fill:#FFFFFF;}
	.st2{fill:#E72C83;}
</style>
<g>
	<path class="st0" d="M18.7,238v-99.5C18.7,62.1,80.8,0,157.2,0c76.4,0,138.5,62.1,138.5,138.5V238c0,34.4-28,62.4-62.3,62.4
		c-6.6,0-11.9-5.3-11.9-11.9c0-6.6,5.3-11.9,11.9-11.9c21.2,0,38.5-17.3,38.5-38.5v-99.5c0-63.2-51.4-114.7-114.7-114.7
		C94,23.8,42.5,75.3,42.5,138.5V238c0,21.2,17.3,38.5,38.5,38.5c6.6,0,11.9,5.3,11.9,11.9c0,6.6-5.3,11.9-11.9,11.9
		C46.7,300.4,18.7,272.4,18.7,238L18.7,238z M116.4,161c-5,2.6-10.2,5.4-15.2,8.2c-10.5,5.9-20.6,12.9-23.2,23.9
		c-2.3,9.6,2.3,17.9,6.5,24.1c9.6,14.1,35.6,46.9,70.2,47c10.7,0,21.2-3.4,34.3-11c31.1-18.1,50.4-52.6,50.4-90
		c0-15.6-2.5-30-7.5-42.8c-2.4-6.1-9.3-9.2-15.4-6.8c-6.1,2.4-9.2,9.3-6.8,15.4c3.9,10,5.8,21.5,5.8,34.2
		c0,28.9-14.8,55.5-38.6,69.4c-9.2,5.4-16.1,7.7-22.3,7.8c-18.9,0-38.5-18.9-50.5-36.5c-2.2-3.2-2.7-4.8-2.9-5.3
		c0.5-0.8,2.7-3.5,11.6-8.4c4.7-2.7,9.8-5.3,14.7-7.9c27.2-14.3,55.2-29.1,60.1-58.6c4.4-26.3-5-42.3-13.7-51.1
		c-13.9-14.1-36.4-20.1-61.6-16.4c-6.5,1-11,7-10,13.5c1,6.5,7,11,13.5,10c17.7-2.6,32.7,0.8,41.2,9.5c6.9,7,9.3,17.3,7.1,30.5
		C161.2,137.4,139.5,148.9,116.4,161L116.4,161z M185.9,486.4h-62.1L33,372.6c33.5-8.7,89.7-28.4,106.2-64.3
		c2.7-6,0.1-13.1-5.9-15.8c-6-2.7-13-0.1-15.8,5.9c-12.3,27-65.7,46.6-107.7,55.2c-0.9,0.2-1.7,0.4-2.6,0.8c-1.6,0.7-2.9,1.7-4,2.9
		c-0.9,1-1.6,2.2-2.2,3.4c-0.8,1.9-1.1,4.1-0.8,6.2c0.1,0.9,0.4,1.9,0.7,2.7c0.5,1.2,1.1,2.4,2,3.3l106,132.8c1.4,1.7,3.1,2.9,5,3.7
		c0.9,0.3,1.8,0.6,2.8,0.7c0.5,0.1,1,0.1,1.5,0.1c0.1,0,0.1,0,0.2,0h67.6c6.6,0,11.9-5.3,11.9-11.9
		C197.9,491.7,192.5,486.4,185.9,486.4L185.9,486.4z M205.9,341.4c3.8,2.5,7.9,5,12.3,7.4c1.8,1,3.8,1.5,5.7,1.5
		c4.2,0,8.3-2.2,10.5-6.2c3.1-5.8,1-13-4.8-16.2c-3.8-2.1-7.3-4.2-10.5-6.3c-11.2-7.5-18.8-15.3-22.4-23.2c-2.7-6-9.8-8.6-15.8-5.9
		c-6,2.7-8.6,9.8-5.9,15.8C180.6,320.3,191,331.4,205.9,341.4L205.9,341.4z"/>
	<path class="st1" d="M303.8,401.2h-6v-6.1c0-19.3-15.7-34.9-34.9-34.9c-19.3,0-34.9,15.7-34.9,34.9v6.1h-6.1
		c-19.3,0-34.9,15.7-34.9,34.9c0,19.3,15.7,34.9,34.9,34.9h6.1v6.1c0,19.3,15.7,34.9,34.9,34.9c19.3,0,34.9-15.7,34.9-34.9V471h6
		c19.3,0,34.9-15.7,34.9-34.9C338.8,416.8,323.1,401.2,303.8,401.2z M303.8,447.2h-18c-6.6,0-11.9,5.3-11.9,11.9v18
		c0,6.1-5,11.1-11.1,11.1c-6.1,0-11.1-5-11.1-11.1v-18c0-6.6-5.3-11.9-11.9-11.9h-18c-6.1,0-11.1-5-11.1-11.1
		c0-6.1,5-11.1,11.1-11.1h18c6.6,0,11.9-5.3,11.9-11.9v-18c0-6.1,5-11.1,11.1-11.1c6.1,0,11.1,5,11.1,11.1v18
		c0,6.6,5.3,11.9,11.9,11.9h18c6.1,0,11.1,5,11.1,11.1C314.9,442.2,310,447.2,303.8,447.2z"/>
	<path class="st2" d="M314.9,436.1"/>
</g>
</svg>
