<?xml version="1.0" encoding="utf-8"?>
<!-- Generator: Adobe Illustrator 21.0.0, SVG Export Plug-In . SVG Version: 6.00 Build 0)  -->
<svg version="1.1" id="Слой_1" xmlns="http://www.w3.org/2000/svg" xmlns:xlink="http://www.w3.org/1999/xlink" x="0px" y="0px"
	 viewBox="0 0 494.1 512" style="enable-background:new 0 0 494.1 512;" xml:space="preserve">
<path d="M240,127.7c26.7,0,48.4-21.7,48.4-48.4c0-19.1-11.1-35.6-27.2-43.5l11.3-12.5c14,2.8,26.2,17.5,27.8,34.7c0,0.1,0,0.2,0,0.4
	c0,0.1,1.1,8.4,1.9,16.9c0.1,0.8,0.1,1.9,0.2,3.1c0.6,9.5,1.8,29.3,13,42.7c7.6,9,19.5,14.2,32.7,14.2c6.3,0,11.4-5.1,11.4-11.4
	c0-6.3-5.1-11.4-11.4-11.4c-6.3,0-12-2.3-15.2-6.1c-6.4-7.6-7.3-22.4-7.7-29.4c-0.1-1.6-0.2-2.9-0.3-4.1c-0.8-8.2-1.8-16-2-17.3
	C320,25,295.4,0,267.9,0c-0.2,0-0.3,0-0.5,0c-1.2,0-2.4,0.3-3.5,0.7c-1.7,0.6-3.3,1.6-4.6,3.1l-24.7,27.4
	c-24.2,2.7-43.1,23.2-43.1,48.1C191.6,106,213.3,127.7,240,127.7L240,127.7z M239.9,53.7c0.1,0,0.2,0,0.3,0
	c14,0.1,25.5,11.5,25.5,25.6c0,14.1-11.5,25.6-25.6,25.6c-14.1,0-25.6-11.5-25.6-25.6C214.4,65.2,225.8,53.8,239.9,53.7L239.9,53.7z
	 M491.6,380.1l-79-98.9c-0.5-0.6-1-1.1-1.5-1.6c-0.8-1-1.8-1.8-3-2.5c-2.6-1.5-5.7-1.9-8.7-1.1l-48.3,13l-28.5-85.5
	c-7.3-21.9-18.5-48.7-40.3-61.9c-2-1.2-4.2-1.7-6.3-1.6c-2.9-0.1-5.8,0.9-8.1,3c-4.2,3.9-14.5,8.4-29.5,8.4c-15,0-25.3-4.5-29.5-8.4
	c-2.2-2.1-5.1-3.1-7.9-3c-1.9,0-3.9,0.4-5.7,1.3c-23.8,12.7-40.3,38.9-52.1,60.3l-47.3,86.2l-47.6-12.8c-6.1-1.6-12.3,2-14,8.1
	l-28,104.1c-0.8,2.9-0.4,6,1.1,8.7c1.5,2.6,4,4.5,6.9,5.3l94.4,25.4c6.1,1.6,12.3-2,14-8.1l28-104.1c0.8-2.9,0.4-6-1.1-8.7
	c-1.5-2.6-4-4.5-6.9-5.3l-24.2-6.5l44.6-81.4c8.5-15.4,21.2-36.4,37.2-47.7c9.9,5.9,23.5,9.3,38,9.3c14.3,0,27.7-3.3,37.6-9.1
	c12.5,11,20.2,30.9,25.1,45.6l28,84.2l-24.1,6.5c-6.1,1.6-9.7,7.9-8.1,14L331.5,444c0.8,2.9,2.7,5.4,5.3,6.9c1.7,1,3.7,1.5,5.7,1.5
	c1,0,2-0.1,3-0.4l94.5-25.4c6.1-1.6,9.7-7.9,8.1-14l-20.5-76.3l38.6,48.4l-5.4,3.7c-5.2,3.6-6.5,10.7-2.9,15.9
	c3.6,5.2,10.7,6.5,15.9,2.9l15.4-10.7c2.6-1.8,4.3-4.6,4.8-7.7C494.4,385.8,493.6,382.6,491.6,380.1L491.6,380.1z M125.8,319.5
	l-22.1,82.1l-72.4-19.5l22.1-82.1L125.8,319.5z M350.6,427.1L322,320.5l72.4-19.5L423,407.6L350.6,427.1z M311.8,505.8
	c-3.6,5.2-10.7,6.4-15.9,2.8l-23.4-16.5c-0.6-0.4-1.2-0.9-1.8-1.5h0c-1.1-1.2-1.9-2.5-2.5-3.9L226,379.1h-9l-0.7,103.7
	c0,3.6-1.7,6.8-4.3,8.9c-0.6,0.6-1.2,1.2-1.9,1.7l-23.5,16.5c-2,1.4-4.3,2.1-6.5,2.1c-3.6,0-7.1-1.7-9.3-4.9
	c-3.6-5.1-2.4-12.3,2.8-15.9l20.1-14.1l0.7-98h-19.9c-0.4,0-0.9,0-1.3,0c-1.5-0.1-2.9-0.6-4.2-1.2c-1.1-0.6-2.1-1.3-3-2.2
	c-1.5-1.6-2.6-3.7-3-6c-0.1-0.8-0.2-1.6-0.1-2.5c0-0.7,0.1-1.3,0.3-2l32.6-159.5c1.3-6.2,7.3-10.2,13.5-8.9
	c6.2,1.3,10.2,7.3,8.9,13.5l-29.9,146.1h78.5l-28.8-93.6c-0.6-1.8-0.7-3.7-0.3-5.5l9.9-51.4c1.2-6.2,7.2-10.2,13.3-9.1
	c6.2,1.2,10.2,7.2,9.1,13.3l-9.3,48.6l32.4,105.4c0.2,0.6,0.4,1.3,0.5,1.9c0.2,1.3,0.2,2.6-0.1,3.9c-0.3,1.7-1,3.2-2,4.6
	c-1,1.3-2.2,2.4-3.7,3.2c-1.1,0.6-2.4,1.1-3.8,1.3c-0.7,0.1-1.3,0.1-1.9,0.1h-31.2l37.8,96.3l20.7,14.5
	C314.1,493.6,315.4,500.7,311.8,505.8L311.8,505.8z M311.8,505.8"/>
</svg>
