<?xml version="1.0" encoding="utf-8"?>
<!-- Generator: Adobe Illustrator 21.0.0, SVG Export Plug-In . SVG Version: 6.00 Build 0)  -->
<svg version="1.1" id="Слой_1" xmlns="http://www.w3.org/2000/svg" xmlns:xlink="http://www.w3.org/1999/xlink" x="0px" y="0px"
	 viewBox="0 0 351.3 512" style="enable-background:new 0 0 351.3 512;" xml:space="preserve">
<style type="text/css">
	.st0{fill:#ED2984;}
	.st1{fill:#FFFFFF;}
	.st2{fill:#E72C83;}
</style>
<g>
	<path class="st0" d="M160.3,116.8c2.1-12.9-0.2-22.9-7-29.8c-8.3-8.5-23-11.8-40.2-9.3c-6.4,0.9-12.3-3.5-13.2-9.8
		c-0.9-6.4,3.4-12.3,9.8-13.2c24.7-3.7,46.6,2.2,60.2,16c8.4,8.6,17.6,24.2,13.3,49.9c-4.8,28.8-32.2,43.2-58.7,57.2
		c-4.8,2.5-9.7,5.1-14.3,7.7c-8.6,4.9-10.8,7.5-11.3,8.2c0.1,0.6,0.7,2.1,2.8,5.2c11.7,17.2,30.8,35.6,49.3,35.7
		c6.1,0,12.8-2.3,21.8-7.6c23.2-13.5,37.7-39.5,37.7-67.7c0-12.4-1.9-23.6-5.7-33.4c-2.3-6,0.7-12.7,6.7-15c6-2.3,12.7,0.7,15,6.7
		c4.8,12.5,7.3,26.5,7.3,41.8c0,36.5-18.9,70.1-49.2,87.8c-12.7,7.4-23,10.7-33.5,10.7c-33.7-0.1-59.1-32.1-68.5-45.9
		c-4.1-6-8.5-14.1-6.3-23.5c2.5-10.7,12.4-17.5,22.6-23.3c4.9-2.8,10-5.4,14.9-8C136.2,145.4,157.4,134.2,160.3,116.8L160.3,116.8z
		 M79.1,293.3c6.4,0,11.6-5.2,11.6-11.6c0-6.4-5.2-11.6-11.6-11.6c-20.7,0-37.6-16.9-37.6-37.6v-97.2c0-61.7,50.2-112,112-112
		c61.7,0,112,50.2,112,112v97.2c0,20.7-16.9,37.6-37.6,37.6c-6.4,0-11.6,5.2-11.6,11.6c0,6.4,5.2,11.6,11.6,11.6
		c33.6,0,60.9-27.3,60.9-60.9v-97.2C288.7,60.7,228,0,153.5,0S18.2,60.7,18.2,135.2v97.2C18.2,266,45.6,293.3,79.1,293.3L79.1,293.3
		z M295.3,368.3c5.4,0,10.3-3.8,11.4-9.3c1.3-6.3-2.8-12.4-9.1-13.7c-41.1-8.4-93.3-27.6-105.4-53.9c-2.7-5.8-9.6-8.4-15.4-5.7
		c-5.8,2.7-8.4,9.6-5.7,15.4c19.7,43.1,98.3,62.2,121.9,67.1C293.7,368.2,294.5,368.3,295.3,368.3L295.3,368.3z M157.8,474.9h-36.9
		L32.2,363.8c32.7-8.5,87.6-27.7,103.6-62.8c2.7-5.8,0.1-12.7-5.7-15.4c-5.8-2.7-12.7-0.1-15.4,5.7c-12,26.3-64.1,45.5-105.2,53.9
		c-0.9,0.2-1.7,0.4-2.5,0.8c-1.5,0.7-2.9,1.6-4,2.8c-0.9,1-1.6,2.1-2.1,3.3c-0.8,1.9-1.1,3.9-0.8,6.1c0.1,0.9,0.4,1.9,0.7,2.8
		c0.5,1.2,1.1,2.3,1.9,3.2l103.5,129.6c1.3,1.7,3,2.9,4.9,3.6c0.9,0.3,1.8,0.6,2.7,0.7c0.5,0.1,1,0.1,1.5,0.1c0.1,0,0.1,0,0.2,0
		h42.3c6.4,0,11.6-5.2,11.6-11.6C169.4,480.1,164.2,474.9,157.8,474.9L157.8,474.9z"/>
	<path class="st1" d="M346.9,381.7c-2.8-2.2-6.4-3-9.9-2.2l-66,15.8l-66-15.8c-3.5-0.8-7.1,0-9.9,2.2c-2.8,2.2-4.4,5.6-4.4,9.1V484
		c0,5.4,3.7,10.1,8.9,11.3l68.7,16.4c0.9,0.2,1.8,0.3,2.7,0.3h0.1c0.9,0,1.8-0.1,2.7-0.3l68.7-16.4c5.2-1.2,8.9-5.9,8.9-11.3v-93.1
		C351.3,387.3,349.7,383.9,346.9,381.7z M259.4,485.6L214,474.8v-69.2l45.4,10.9V485.6z M328,474.8l-45.4,10.8v-69.2l45.4-10.9
		V474.8z"/>
	<path class="st2" d="M328,405.6"/>
</g>
</svg>
