<?xml version="1.0" encoding="utf-8"?>
<!-- Generator: Adobe Illustrator 21.0.0, SVG Export Plug-In . SVG Version: 6.00 Build 0)  -->
<svg version="1.1" id="Слой_1" xmlns="http://www.w3.org/2000/svg" xmlns:xlink="http://www.w3.org/1999/xlink" x="0px" y="0px"
	 viewBox="0 0 382.5 512" style="enable-background:new 0 0 382.5 512;" xml:space="preserve">
<style type="text/css">
	.st0{fill:#ED2984;}
	.st1{fill:#FFFFFF;}
</style>
<g>
	<path class="st0" d="M18.1,230.8v-96.5C18.1,60.2,78.4,0,152.4,0s134.3,60.2,134.3,134.3v96.5c0,33.3-27.1,60.5-60.5,60.5
		c-6.4,0-11.5-5.2-11.5-11.5c0-6.4,5.2-11.6,11.5-11.6c20.6,0,37.4-16.8,37.4-37.4v-96.5c0-61.3-49.9-111.2-111.2-111.2
		C91.1,23.1,41.2,73,41.2,134.3v96.5c0,20.6,16.8,37.4,37.4,37.4c6.4,0,11.5,5.2,11.5,11.6c0,6.4-5.2,11.5-11.5,11.5
		C45.2,291.2,18.1,264.1,18.1,230.8L18.1,230.8z M228.5,345.3c1.5,0.7,3.1,1,4.7,1c4.4,0,8.6-2.6,10.6-6.9c2.6-5.8,0-12.7-5.9-15.2
		c-23.6-10.5-39-22.6-44.7-34.9c-2.6-5.8-9.5-8.4-15.3-5.7c-5.8,2.7-8.4,9.5-5.7,15.3C180.3,316.7,199.3,332.3,228.5,345.3
		L228.5,345.3z M112.9,156.1c-4.9,2.6-9.9,5.2-14.8,8c-10.2,5.7-20,12.5-22.5,23.1c-2.2,9.3,2.2,17.4,6.3,23.4
		c9.3,13.7,34.5,45.5,68,45.6c10.4,0,20.6-3.3,33.2-10.7c30.2-17.6,48.9-51,48.9-87.2c0-15.1-2.4-29.1-7.2-41.5
		c-2.3-5.9-9-8.9-14.9-6.6c-5.9,2.3-8.9,9-6.6,14.9c3.8,9.7,5.7,20.9,5.7,33.1c0,28-14.3,53.8-37.4,67.3c-8.9,5.2-15.6,7.5-21.6,7.5
		c-18.3,0-37.3-18.3-48.9-35.4c-2.1-3.1-2.7-4.6-2.8-5.2c0.5-0.8,2.6-3.4,11.2-8.2c4.6-2.6,9.5-5.2,14.2-7.7
		c26.3-13.9,53.6-28.2,58.3-56.8c4.2-25.5-4.9-41-13.2-49.6c-13.5-13.7-35.3-19.5-59.8-15.9c-6.3,0.9-10.7,6.8-9.7,13.1
		c0.9,6.3,6.8,10.7,13.1,9.7c17.1-2.5,31.7,0.8,39.9,9.2c6.7,6.8,9,16.8,6.9,29.6C156.3,133.2,135.2,144.4,112.9,156.1L112.9,156.1z
		 M190.9,471.6h-70.8L32,361.3c32.4-8.5,87-27.5,102.9-62.4c2.7-5.8,0.1-12.7-5.7-15.3c-5.8-2.7-12.7-0.1-15.3,5.7
		c-12,26.2-63.7,45.2-104.5,53.6c-0.6,0.1-1.2,0.3-1.7,0.5c-2,0.7-3.6,1.9-4.9,3.4c-0.7,0.8-1.3,1.7-1.7,2.7c-0.9,1.9-1.2,4-0.9,6.2
		c0.1,1.1,0.4,2.1,0.8,3.1c0.4,1.1,1,2,1.7,2.9l102.8,128.8c1.3,1.7,3,2.9,4.9,3.6c0.8,0.3,1.7,0.6,2.7,0.7c0.5,0.1,1,0.1,1.5,0.1
		c0.1,0,0.1,0,0.2,0h76.2c6.4,0,11.5-5.2,11.5-11.5C202.4,476.8,197.3,471.6,190.9,471.6L190.9,471.6z M190.9,471.6"/>
	<path class="st1" d="M344,381.1c-4.8-22-24.4-38.5-47.8-38.5c-23.5,0-43.1,16.6-47.8,38.7c-21.4,5.2-37.5,24.7-37.5,47.5
		c0,20.9,13.4,39.2,32.4,46v15.5c0,8.8,7.1,15,21,18.3c8.7,2.1,20.1,3.3,32.1,3.3c12,0,23.4-1.2,32.1-3.3c13.9-3.4,21-9.6,21-18.3
		v-15.2c19.4-6.6,33-25,33-46.3C382.5,405.5,366,385.9,344,381.1z M336.6,454.5c-5.8,0.7-10.2,5.6-10.2,11.5v19.4
		c-4.7,1.6-14.9,3.5-30,3.5c-15.1,0-25.2-2-30-3.5v-10.9c13-4.6,23.8-11.3,32.2-20c4.4-4.6,4.3-11.9-0.3-16.3
		c-4.6-4.4-11.9-4.3-16.3,0.3c-6.8,7-16.1,12.3-27.7,15.7c-11.7-2.6-20.2-13-20.2-25.2c0-13.9,11.3-25.4,25.2-25.8
		c6.3-0.2,11.3-5.3,11.3-11.6c0-14.2,11.6-25.8,25.8-25.8c14.2,0,25.8,11.6,25.8,25.8c0,6.4,5.2,11.6,11.5,11.6
		c14.2,0,25.8,11.6,25.8,25.8C359.4,442,349.6,453,336.6,454.5z"/>
</g>
</svg>
