<?xml version="1.0" encoding="utf-8"?>
<!-- Generator: Adobe Illustrator 21.0.0, SVG Export Plug-In . SVG Version: 6.00 Build 0)  -->
<svg version="1.1" id="Слой_1" xmlns="http://www.w3.org/2000/svg" xmlns:xlink="http://www.w3.org/1999/xlink" x="0px" y="0px"
	 viewBox="0 0 512 512" style="enable-background:new 0 0 512 512;" xml:space="preserve">
<style type="text/css">
	.st0{fill:#FFFFFF;}
	.st1{fill:#ED2984;}
</style>
<path class="st0" d="M284.3,82.8c-18.9-0.1-34.6-3.4-50-7.5c-3.1-0.8-5-0.8-7.3,1.9c-6.8,8.2-14,7.5-19.7-1.5c-0.6-1-1.5-2-1.6-3.1
	c-0.8-7.1-6.1-9.4-11.8-11.8c-12.7-5.3-24.6-12-35.4-20.5c-3.4-2.7-6.4-5.9-8.8-9.5c-4.7-7-2.7-12.8,5.1-15.8
	c8.5-3.2,17.4-2.8,26.2-2.3c6,0.3,11.9,1,17.8,2.5c2.7,0.7,4.5,0.2,5.9-2.8c4.1-8.7,13.8-13.9,21.9-12.1
	c9.8,2.1,18.1,10.6,17.7,20.3c-0.3,6.7,3.1,8.2,8,10.2c17.7,7.2,34.8,15.3,48.8,28.8c2.2,2.1,4,4.5,5.3,7.2c2.7,5.7,1,10.5-4.8,13
	C295.1,82.5,288.3,83,284.3,82.8z"/>
<path class="st1" d="M267.6,288.1c9.3-10.5,18-21,27.9-30.5c10.3-9.8,21.1-19,34.8-24c5.1-1.8,10.3-2.8,15.7-2.6
	c7.6,0.3,10.7,3.1,11,10.7c0.7,16.1-3.7,31.1-11.5,45c-10.2,18.1-23.9,33.4-40.2,46.2c-4.9,3.8-10.2,6.9-16.5,8
	c-2.2,0.4-5.1,1.6-6.3-1c-1.4-2.9,0.3-5.4,2.9-7.2c4.1-2.8,8.4-5.6,12.3-8.7c19.4-15.5,33-35.1,41.4-58.4c1.5-4.2,2.3-8.8,1.1-13.3
	c-1.5-5.5-6.2-8.1-10.8-5c-27.1,18.2-51.7,38.7-61.6,71.7c-1.5,5.1-2.3,10.5-2.3,15.8c0,25.7-0.2,51.4,1.9,77.1
	c0.4,4.5,1.6,8.9,2.7,13.2c1.9,7.4,0.1,13.9-5.5,19.2c-2.3,2.2-5.1,3.3-8.3,2.3c-3.2-1-4.5-3.8-4.9-6.9c-1-7.7,0.2-15.3,0.2-23
	c0-6.3,0.4-12.7,0.4-19c0-48.1,0-96.3,0-144.4c0-4.2,0.1-8.4,0.6-12.5c0.7-6.7,7.3-10.3,13.4-7.4c3,1.4,3,4.3,3.2,6.9
	c0.5,7.8,0.3,15.7-1.2,23.4C266.4,271.8,266.9,279.9,267.6,288.1z"/>
<path class="st1" d="M64.9,307.1c6.7-18.3,13.5-36.5,19.9-55c9.8-28.2,19.6-56.4,31-84c0.9-2.3,1.5-6.7,4.2-5.8c3.2,1.1,1,5,0.1,7.4
	C101,221.2,89.8,274.8,76,327.7c-1.1,4.2-2.5,6.4-7.3,7.1c-3.4,0.5-6.5,3.2-9.7,5c-5.8,3.2-7.6,2.6-9.3-3.7
	c-4.3-15.9-7.9-32-11.5-48.1c-4.7-21.6-12.6-42.1-20.2-62.8c-3.7-10-7-20.2-8.5-30.8c-0.5-3.5-0.5-7,1.7-10.1
	c4.4-6,10.3-5.7,13.7,0.9c2.3,4.5,3.6,9.3,5.1,14.1c5.3,16.9,10.9,33.6,18.1,49.8c7.6,16.9,10.5,35.1,14.7,52.9
	c0.4,1.6,0.7,3.2,1.1,4.8C64.2,307,64.6,307.1,64.9,307.1z"/>
<path class="st0" d="M292.7,371.7c-2.5,21.7-0.9,43.3,0.1,65c0.3,5.9,0.4,5.9,5.6,3.3c17-8.4,34-16.9,50.9-25.3
	c0.7-0.4,1.5-0.7,2.2-1.1c1.6-0.8,3.9-2.1,4.9-0.3c1,2-1.5,3-3,3.9c-21.6,13-42.7,26.7-63.3,41c-1.7,1.2-3.9,2.1-5.9,2.5
	c-4,0.8-6.5-1.1-6.7-5.3c-0.1-2.5-0.3-5.1,0.1-7.5c3.5-18.9,1.8-37.9,2.1-56.9c0.1-8.5,0.2-17,1.4-25.4c0.2-1.6,0.7-3.3,1.2-4.8
	c1.1-3.1,2.5-6.1,6.5-5.6c4.2,0.5,3.6,4.2,3.8,7.1C292.8,365.3,292.7,368.5,292.7,371.7z"/>
<path class="st0" d="M483.5,429.6c4.7-10.9,9.1-20.9,13.4-31c0.9-2,1.7-3.9,4.3-2.9c2.7,1,1.2,3.2,0.7,4.7
	c-12.5,36.2-25.1,72.3-41,107.1c-0.1,0.2-0.1,0.3-0.2,0.5c-1.2,1.6-1.3,5-4.2,3.8c-3.1-1.2-0.8-3.9-0.2-5.6
	c6.9-20,14-39.9,21.2-59.7c1-2.8,0.8-4.9-0.7-7.5c-6-10.6-11.6-21.4-16.5-32.5c-1.5-3.4-1.8-6.7,2.1-8.5c3.6-1.6,6,0.2,7.5,3.6
	c3.9,8.5,7.9,16.9,11.8,25.3C482.2,427.5,482.6,428.2,483.5,429.6z"/>
<path class="st0" d="M452.6,458.6c-3-20.7-3.1-41.6-2.7-62.4c0.2-8.7,0.1-17.4,0-26c0-2.2-0.4-4.4-3.3-4.7c-2.8-0.3-4.3,1.2-5.2,3.7
	c-0.8,2.4-1,4.9-1,7.4c0.1,9,0.4,18,0.3,27c-0.1,7.1-0.2,7.1-7.2,5.8c-22.3-4.1-37.8,9.7-35,31.1c1.1,8.3,5,15,13,18.2
	c8.1,3.2,15.4,0.7,21.7-4.9c2.7-2.4,5.3-5,8.2-7.8c0.6,5.3,1.1,10.3,1.7,15.2c0.5,3.7,2.6,5.3,6.3,4.3
	C453,464.4,453.1,461.6,452.6,458.6z M440.2,430.6c0.9,11.2-9.2,21.2-20.4,20.4c-3.7-0.3-6.7-1.9-8.7-5.1
	c-4.3-6.7-4.6-13.9-1.1-20.9c3.3-6.5,9.3-8.7,16.3-8.4c4.3,0.2,9.5-0.5,12.5,2.1C441.8,421.3,439.9,426.5,440.2,430.6z"/>
<path class="st0" d="M390.6,440.6c-4.3,0.1-3.6-2.8-3.6-5.4c-0.2-9.7,0.8-19.4-1-29c-1.5-7.9-6-11.6-13.9-11.5
	c-10.6,0.2-19.7,4.7-27.6,11.5c-2.1,1.8-4.3,4.8-1.7,7.4c2.4,2.4,4.5-0.7,6.3-2c5.2-4,10.4-7.8,16.9-9.5c6.1-1.6,11,1.2,11.7,6.8
	c0.6,4.6,0.7,9.2,0,14c-0.9-0.3-1.6-0.5-2.2-0.7c-13-4.6-31.2,2.8-37.3,15.1c-5.8,11.7,0.1,21.2,13,21.8c9.2,0.4,17.4-2.4,25.3-7.3
	c0,2.6-0.1,4.6,0,6.5c0.2,2.9,1.8,4.5,4.9,4.6c2.9,0.1,4.2-1.5,4.6-4.2c0.2-1.7,0.8-3.3,0.6-4.9c-0.4-3.5,0.3-6.1,4.2-7.1
	c1.5-0.4,2.5-1.8,2.4-3.4C393.1,441.7,392,440.6,390.6,440.6z M372,448c-5.8,2.1-11.6,4.1-17.9,4c-6.7-0.2-10.4-5.9-7.9-12.2
	c3.3-8.3,15-14.2,23.6-11.8c4.9,1.3,6.9,4.9,7.1,13C378,444.6,375.8,446.6,372,448z"/>
<path class="st0" d="M257.3,165.7c-2.8-14.4-7.7-28.2-11.2-42.4c-1.9-7.5-6.7-12.4-13.9-15.3c-8.1-3.3-16.5-5.2-25-6.6
	c-9.6-1.5-18.6,0.1-25.6,7.8c-14.6,16.2-31,30.8-44,48.5c-7.8,10.6-13,22.5-11.2,35.9c2.2,16,14.8,45.4,22.2,59.7
	c-1-5.6-8.9-25-11.1-43c-2.1-17.2,3.9-32,14.2-45.3c1.6-2.1,3.5-4,5.3-6c8.3-10.5,18.4-19.2,27.9-28.5c1.8-1.7,2.7-1,3.6,1
	c4.6,9.8,9.7,19.5,13.9,29.4c4.2,10.1,2.9,19.6-5,27.7c-3.6,4.9-8.1,8.7-12.6,12.6c-13,11.1-25.2,23-32.4,38.8
	c-4.6,10.1-5.7,18.4-4.8,27.6c1.4,14.1,6.1,27.2,10.7,40.4c11,31.7,22.5,63.1,33.4,94.8c8.9,25.8,15.7,52.8,20.2,79.8
	c0.8,4.6,1.8,12.9,3,22.6c1.2-15.3-0.6-38.7-0.7-53.3c-0.2-19-1.8-37.9-2.6-56.9c-1.1-26.7-0.8-53.4-1-80.1
	c-0.1-20.6,1.5-41.1,3.3-61.5c1.4-15.4,3.5-30.7,6.8-45.8c1.9-8.5,2.7-17.4,6.5-25.4c3.6-9.7,7.2-19.4,10.8-29
	c0.3-0.7,0.1-1.8,1.3-1.8c1,0,1.4,0.8,1.6,1.6c2.6,9.1,5.1,18.2,5.8,27.8c1.6,20.5-8.7,38.3-18.2,55c-1.3,2.3-16,23.2-16.1,23.4
	c0.2,0.5,27.9-34.7,34.4-44.2C257.1,200,260.9,183.9,257.3,165.7z"/>
</svg>
