<?xml version="1.0" encoding="utf-8"?>
<!-- Generator: Adobe Illustrator 21.0.0, SVG Export Plug-In . SVG Version: 6.00 Build 0)  -->
<svg version="1.1" id="Слой_1" xmlns="http://www.w3.org/2000/svg" xmlns:xlink="http://www.w3.org/1999/xlink" x="0px" y="0px"
	 viewBox="0 0 387.9 512" style="enable-background:new 0 0 387.9 512;" xml:space="preserve">
<style type="text/css">
	.st0{fill:#ED2984;}
	.st1{fill:#FFFFFF;}
</style>
<g>
	<path class="st0" d="M14.6,238.8V139c0-76.6,62.4-139,139-139s139,62.3,139,139v99.9c0,34.5-28.1,62.6-62.6,62.6
		c-6.6,0-12-5.4-12-12c0-6.6,5.4-12,12-12c21.3,0,38.7-17.3,38.7-38.7V139c0-63.5-51.6-115.1-115.1-115.1
		C90.1,23.9,38.5,75.5,38.5,139v99.9c0,21.3,17.3,38.7,38.7,38.7c6.6,0,12,5.4,12,12c0,6.6-5.4,12-12,12
		C42.7,301.4,14.6,273.3,14.6,238.8L14.6,238.8z M112.7,161.6c-5,2.7-10.2,5.4-15.3,8.2c-10.6,5.9-20.7,12.9-23.3,23.9
		c-2.3,9.6,2.3,18,6.5,24.2c9.6,14.2,35.7,47.1,70.4,47.2c10.7,0,21.3-3.4,34.4-11c31.2-18.2,50.6-52.8,50.6-90.3
		c0-15.7-2.5-30.1-7.5-42.9c-2.4-6.2-9.3-9.2-15.5-6.8c-6.2,2.4-9.2,9.3-6.8,15.5c3.9,10.1,5.9,21.6,5.9,34.3
		c0,29-14.8,55.7-38.7,69.6c-9.2,5.4-16.1,7.8-22.4,7.8c-19,0-38.6-19-50.6-36.7c-2.2-3.2-2.8-4.8-2.9-5.4c0.5-0.8,2.7-3.5,11.6-8.5
		c4.8-2.7,9.8-5.4,14.7-7.9c27.2-14.4,55.4-29.2,60.3-58.8c4.4-26.4-5-42.5-13.7-51.3c-14-14.2-36.5-20.2-61.9-16.4
		c-6.5,1-11,7-10.1,13.6c1,6.5,7,11,13.6,10.1c17.7-2.6,32.8,0.9,41.3,9.5c6.9,7.1,9.4,17.4,7.2,30.6
		C157.6,137.9,135.8,149.4,112.7,161.6L112.7,161.6z M208.2,344.2c1.9,1.1,4,1.7,6.1,1.7c4.1,0,8-2.1,10.3-5.8
		c3.4-5.7,1.5-13-4.1-16.4c-12.4-7.4-20.7-15.6-24.6-24.2c-2.7-6-9.8-8.7-15.8-5.9c-6,2.7-8.7,9.8-5.9,15.8
		C180.1,322.5,191.6,334.3,208.2,344.2L208.2,344.2z M188.8,488.1h-68.5l-87.8-118c56.9-13.8,90.6-33.8,102.9-60.7
		c2.7-6,0.1-13.1-5.9-15.8c-6-2.7-13.1-0.1-15.8,5.9c-6.9,15.1-30.5,36.2-103.9,51.2c-0.9,0.2-1.8,0.4-2.7,0.8
		c-1.3,0.6-2.5,1.4-3.6,2.4c-1.3,1.2-2.2,2.7-2.8,4.3c-0.6,1.6-0.9,3.3-0.8,5.1c0.1,1.4,0.4,2.8,1,4.1c0.4,0.9,0.9,1.7,1.5,2.5
		l102.2,137.4c1.4,1.9,3.4,3.3,5.5,4.1c0.7,0.2,1.3,0.4,2.1,0.6c0.7,0.1,1.4,0.2,2.1,0.2c0.1,0,0.2,0,0.3,0h74.2c6.6,0,12-5.4,12-12
		C200.8,493.4,195.4,488.1,188.8,488.1L188.8,488.1z"/>
	<g>
		<path class="st1" d="M375.7,408.1l-10.4,0.2l6.7-11.6c18-31.2,7.3-71.2-23.9-89.2c0,0-0.1-0.1-0.1-0.1c-31.2-17.9-71.1-7.2-89,24
			l-45.5,78.7c-8.7,15.1-11,32.6-6.5,49.5c4.5,16.9,15.3,30.9,30.3,39.6c0,0,0.1,0,0.1,0.1c10.3,5.9,21.5,8.7,32.5,8.7
			c22.6,0,44.6-11.7,56.6-32.6l16.7-28.9l6.1,13.1c2.8,6,9.9,8.6,15.9,5.8c6-2.8,8.6-9.9,5.8-15.9l-8-17.3l13.2-0.3
			c6.6-0.1,11.8-5.6,11.7-12.2C387.7,413.2,382.3,407.9,375.7,408.1z M305.8,463.5c-11.4,19.7-36.7,26.5-56.4,15.2c0,0,0,0-0.1,0
			c-9.5-5.5-16.3-14.4-19.2-25.1c-2.9-10.7-1.4-21.9,4.1-31.4l15.8-27.4c0.3,0.7,0.5,1.4,0.8,2.1c5.5,13.4,15.1,24.2,27.6,31.5
			c13.2,7.6,28.3,10.3,43.3,7.8L305.8,463.5z M351.3,384.7l-4.3,7.5c0,0.1-0.1,0.1-0.1,0.2c-5.5,9.5-14.4,16.3-25.1,19.2
			c-10.7,2.9-21.9,1.4-31.4-4.1c-7.9-4.6-13.9-11.4-17.4-19.9c-5-12.1-4.2-25.4,2.3-36.6c0-0.1,0.1-0.1,0.1-0.2l4.3-7.5
			c11.4-19.8,36.8-26.6,56.5-15.1c0,0,0.1,0,0.1,0.1C355.9,339.7,362.7,365,351.3,384.7z"/>
		<path class="st1" d="M309.5,371.8c-5.9-3-13.1-0.6-16,5.4c-3,5.9-0.6,13.1,5.3,16c1.7,0.9,3.5,1.3,5.3,1.3c4.4,0,8.6-2.4,10.7-6.6
			C317.8,382,315.4,374.8,309.5,371.8L309.5,371.8z"/>
	</g>
</g>
</svg>
