<?xml version="1.0" encoding="utf-8"?>
<!-- Generator: Adobe Illustrator 21.0.0, SVG Export Plug-In . SVG Version: 6.00 Build 0)  -->
<svg version="1.1" id="Слой_1" xmlns="http://www.w3.org/2000/svg" xmlns:xlink="http://www.w3.org/1999/xlink" x="0px" y="0px"
	 viewBox="0 0 308.6 512" style="enable-background:new 0 0 308.6 512;" xml:space="preserve">
<path d="M179.9,117.6C206,133.5,220,166,225.9,184l40.4,121.5h3.2c6.4,0,11.6,5.2,11.6,11.6c0,6.4-5.2,11.6-11.6,11.6h-26.7
	c-6.4,0-11.6-5.2-11.6-11.6c0-6.1,4.7-11.1,10.7-11.6l-38-114.2c-6.3-19-15.2-34.7-25.3-45.1l-29.8,73.9c-2.4,5.9-9.1,8.8-15.1,6.4
	c-5.9-2.4-8.8-9.1-6.4-15.1l35.6-88.2c0.1-0.4,0.3-0.7,0.5-1c0.6-1.2,1.4-2.2,2.3-3.1c1.3-1.3,2.8-2.2,4.5-2.7
	c1.6-0.5,3.3-0.7,5-0.5c1.3,0.2,2.5,0.5,3.8,1.1C179.2,117.2,179.5,117.4,179.9,117.6L179.9,117.6z M81,51.6
	C81,23.1,104.1,0,132.5,0s51.6,23.1,51.6,51.6c0,28.4-23.1,51.6-51.6,51.6S81,80,81,51.6L81,51.6z M104.1,51.6
	c0,15.7,12.7,28.4,28.4,28.4c15.7,0,28.4-12.7,28.4-28.4c0-15.7-12.7-28.4-28.4-28.4C116.9,23.2,104.1,35.9,104.1,51.6L104.1,51.6z
	 M308.6,357.5v67.9c0,6.4-5.2,11.6-11.6,11.6h-81.6c-6.4,0-11.6-5.2-11.6-11.6v-67.9c0-6.4,5.2-11.6,11.6-11.6H297
	C303.4,345.9,308.6,351.1,308.6,357.5L308.6,357.5z M285.4,369.1H227v44.8h58.4V369.1z M105.9,171.8c3.4,5.4,10.6,7,16,3.6
	c5.4-3.4,7-10.6,3.6-16l-24.2-38.1c-3.3-5.4-10.4-7.1-15.8-3.8c-23.5,14.2-35.5,43-43.3,66.5L0.6,308.7c-2,6.1,1.3,12.6,7.3,14.7
	c1.2,0.4,2.4,0.6,3.7,0.6c4.9,0,9.4-3.1,11-7.9l41.5-124.7c4.9-14.8,12.5-34.4,24.4-46.8L105.9,171.8z M193.1,309.7
	c2.4,2.9,3.2,6.8,2.2,10.5l-46.7,168.6h11.5c6.4,0,11.6,5.2,11.6,11.6c0,6.4-5.2,11.6-11.6,11.6h-26.5c-0.4,0-0.7,0-1.1,0
	c-0.3,0-0.6,0-0.9,0c-0.1,0-0.2,0-0.4,0h-26.4c-6.4,0-11.6-5.2-11.6-11.6c0-6.4,5.2-11.6,11.6-11.6h11.5L69.8,320.2
	c-1-3.6-0.2-7.5,2.2-10.5l21.8-26.4c-1.5-0.5-2.8-1.3-3.9-2.2c-1.3-1.2-2.4-2.6-3.1-4.3c-0.4-1-0.7-2.2-0.8-3.3l-6.8-62.7
	c-0.7-6.4,3.9-12.1,10.3-12.8c6.4-0.7,12.1,3.9,12.8,10.3l5.7,52.5h49.2l3.6-32.9c0.7-6.4,6.4-11,12.8-10.3
	c6.4,0.7,11,6.4,10.3,12.8l-4.7,43.1c-0.1,1.2-0.4,2.3-0.8,3.4c-0.7,1.6-1.6,2.9-2.9,4.1c-1.2,1.1-2.6,1.9-4.1,2.4L193.1,309.7z
	 M171.4,319.8l-29.7-35.9h-18.3l-29.7,35.9l38.8,140.3L171.4,319.8z M171.4,319.8"/>
</svg>
