<?xml version="1.0" encoding="utf-8"?>
<!-- Generator: Adobe Illustrator 21.0.0, SVG Export Plug-In . SVG Version: 6.00 Build 0)  -->
<svg version="1.1" id="Слой_1" xmlns="http://www.w3.org/2000/svg" xmlns:xlink="http://www.w3.org/1999/xlink" x="0px" y="0px"
	 viewBox="0 0 312.6 512" style="enable-background:new 0 0 312.6 512;" xml:space="preserve">
<path d="M91.3,125.8c-2.1,3.8-6,6-10,6c-1.8,0-3.7-0.4-5.4-1.4L58,120.8c-5.6-3-7.6-9.9-4.6-15.4c3-5.6,9.9-7.6,15.4-4.6l17.9,9.6
	C92.3,113.4,94.3,120.3,91.3,125.8L91.3,125.8z M52.6,76c1.5,4.9,6,8.1,10.9,8.1c1.1,0,2.2-0.2,3.3-0.5l22.7-6.8
	c6-1.8,9.4-8.2,7.6-14.2c-1.8-6-8.2-9.5-14.2-7.6l-22.7,6.8C54.2,63.6,50.7,70,52.6,76L52.6,76z M37,51c1.7,0.9,3.6,1.4,5.4,1.4
	c4.1,0,8-2.2,10.1-6l9.6-17.9c3-5.5,0.9-12.5-4.6-15.4C51.9,10,45,12.1,42,17.7l-9.6,17.9C29.4,41.1,31.5,48,37,51L37,51z
	 M275.7,203.5c-7.3-21.8-18.4-48.5-40.1-61.8c-0.7-0.5-1.5-0.9-2.4-1.1c-1.6-0.6-3.3-0.7-4.9-0.6c-1.6,0.2-3.2,0.7-4.7,1.6
	c-0.7,0.4-1.4,0.9-2,1.5c-4.5,4-15.8,8.3-30.2,8.3c-14.4,0-25.7-4.3-30.2-8.3c-0.6-0.6-1.3-1.1-2.1-1.6c-1.5-0.9-3.1-1.4-4.7-1.5
	c-1.6-0.2-3.3,0-4.9,0.6c-0.8,0.3-1.6,0.7-2.3,1.2c-10.6,6.5-20.1,12.1-28.4,16.9c-2.9,1.7-5.7,3.4-8.4,4.9
	c-4.7,2.8-8.8,5.3-12.4,7.5c-11.9,7.2-19.1,11.6-23,11c-5-0.8-14.3-8.5-28.4-20.1c-6.8-5.6-14.2-13.4-23.5-23.5v-9.1
	c1.3,0.1,2.6,0,3.9-0.4c6.1-1.6,9.7-7.9,8.1-14L22.4,68.8c-1.6-6.1-7.9-9.7-14-8.1c-6.1,1.6-9.7,7.9-8.1,14l5.4,20
	c-3.4,2-5.8,5.7-5.8,9.9v38.2c0,2.9,1.1,5.6,3,7.7c11.4,12.5,20.2,21.9,28.8,29c18.8,15.5,28.3,23.3,39.4,25.1
	c12.2,1.9,22.1-4.1,38.4-14c3.6-2.2,7.6-4.6,12.2-7.3c2.6-1.6,5.4-3.2,8.3-4.9c6.8-4,14.3-8.4,22.6-13.4c10,5.8,24,9.2,38.5,9.2
	c14.3,0,27.9-3.3,37.9-8.8c12.3,11.1,19.9,30.7,24.8,45.4l31.1,93.4c1.6,4.8,6,7.8,10.8,7.8c1.2,0,2.4-0.2,3.6-0.6
	c6-2,9.2-8.4,7.2-14.4L275.7,203.5z M262,490l-20.7-14.5l-37.8-96.3h31.2c0.7,0,1.3,0,2-0.1c1.3-0.2,2.6-0.6,3.7-1.2
	c1.5-0.8,2.8-1.9,3.8-3.3c1-1.3,1.7-2.9,2-4.5c0.3-1.3,0.3-2.6,0.1-4c-0.1-0.7-0.2-1.3-0.5-1.9l-32.4-105.4l9.3-48.6
	c1.2-6.2-2.9-12.2-9.1-13.3c-6.2-1.2-12.2,2.9-13.4,9.1l-9.9,51.4c-0.4,1.8-0.2,3.7,0.3,5.5l28.8,93.6h-78.5l29.9-146.1
	c1.3-6.2-2.7-12.2-8.9-13.5c-6.2-1.3-12.2,2.7-13.5,8.9L116,365.2c-0.1,0.6-0.2,1.3-0.3,2c0,0.8,0,1.7,0.1,2.5
	c0.4,2.3,1.4,4.3,3,5.9c0.9,0.9,1.9,1.7,3,2.3c1.3,0.7,2.7,1.1,4.2,1.2c0.5,0,0.9,0.1,1.3,0h19.9l-0.7,98l-20.1,14.1
	c-5.1,3.6-6.4,10.7-2.8,15.9c2.2,3.2,5.8,4.8,9.3,4.8c2.3,0,4.6-0.7,6.5-2.1l23.5-16.5c0.7-0.5,1.4-1.1,1.9-1.7
	c2.6-2.1,4.3-5.3,4.3-8.9l0.7-103.7h9l42.2,107.6c0.5,1.4,1.3,2.8,2.5,3.9c0.5,0.6,1.1,1.1,1.8,1.5l23.4,16.5
	c5.2,3.6,12.3,2.4,15.9-2.8C268.4,500.7,267.1,493.6,262,490L262,490z M312.6,123.9c0,6.3-5.1,11.4-11.4,11.4
	c-13.2,0-25.1-5.2-32.7-14.2c-11.2-13.4-12.4-33.2-13-42.7c-0.1-1.3-0.1-2.3-0.2-3.1c-0.9-8.5-1.9-16.9-1.9-16.9c0-0.1,0-0.2,0-0.4
	c-1.6-17.2-13.8-31.9-27.8-34.7l-11.3,12.5c16.1,7.9,27.2,24.4,27.2,43.5c0,26.7-21.7,48.4-48.4,48.4c-26.7,0-48.4-21.7-48.4-48.4
	c0-24.9,18.9-45.4,43.1-48.1l24.7-27.4c0.1-0.1,0.1-0.2,0.2-0.2c1.1-1.1,2.3-2,3.6-2.6c1.4-0.6,2.9-1,4.5-1c0.1,0,0.2,0,0.3,0
	C248.3,0,273,25,276,55.6c0.2,1.3,1.1,9.1,2,17.3c0.1,1.2,0.2,2.5,0.3,4.1c0.4,7.1,1.3,21.8,7.7,29.4c3.2,3.8,8.9,6.1,15.2,6.1
	C307.5,112.5,312.6,117.6,312.6,123.9L312.6,123.9z M193.1,53.7c-0.1,0-0.2,0-0.3,0c-14,0.1-25.4,11.5-25.4,25.6
	c0,14.1,11.5,25.6,25.6,25.6c14.1,0,25.6-11.5,25.6-25.6C218.6,65.2,207.2,53.8,193.1,53.7L193.1,53.7z M193.1,53.7"/>
</svg>
