<?xml version="1.0" encoding="utf-8"?>
<!-- Generator: Adobe Illustrator 21.0.0, SVG Export Plug-In . SVG Version: 6.00 Build 0)  -->
<svg version="1.1" id="Слой_1" xmlns="http://www.w3.org/2000/svg" xmlns:xlink="http://www.w3.org/1999/xlink" x="0px" y="0px"
	 viewBox="0 0 252.1 512" style="enable-background:new 0 0 252.1 512;" xml:space="preserve">
<path d="M244.6,390c-1.2,0.4-2.3,0.6-3.5,0.6c-4.6,0-8.9-2.9-10.4-7.5c-0.2-0.5-0.6-1.8-1.2-3.8c-33.6-106.4-51-143.1-58.5-155.6
	l-16.7,26.3c-3.3,5.1-10.1,6.6-15.2,3.4c-5.1-3.3-6.6-10.1-3.4-15.2l22-34.7c3.2-5.1,8.5-7.7,14.1-6.9c8.6,1.1,15.5,9.2,25.5,29.9
	c6.2,12.8,13.5,30.6,21.7,52.9c9.5,25.8,20.1,57.3,31.6,93.4c0.6,1.9,1,3.1,1.1,3.5C253.5,381.9,250.4,388.1,244.6,390L244.6,390z
	 M164.1,490H88c-6.1,0-11,4.9-11,11c0,6.1,4.9,11,11,11h76.1c6.1,0,11-4.9,11-11C175.1,494.9,170.2,490,164.1,490L164.1,490z
	 M225.4,456.8l-55.5-171.3c-1.9-5.8-8.1-8.9-13.9-7.1c-5.8,1.9-8.9,8.1-7.1,13.9l50.9,157.1H52.2l65.4-201.8c0.2-0.5,0.3-1,0.4-1.6
	c0.2-0.8,0.2-1.6,0.2-2.4c-0.1-1.9-0.6-3.8-1.7-5.5l-22-34.7c-3.2-5.1-8.5-7.7-14.1-6.9c-8.6,1.1-15.5,9.2-25.5,29.9
	c-6.2,12.8-13.5,30.6-21.7,52.9c-9.5,25.9-20.1,57.3-31.5,93.4c-0.6,1.9-1,3-1.1,3.5c-1.9,5.8,1.2,12,7,13.9c5.8,1.9,12-1.2,13.9-7
	c0.1-0.5,0.6-1.8,1.2-3.8c33.6-106.4,51-143.1,58.6-155.6l13.9,21.9L26.7,456.8c-0.2,0.6-0.4,1.3-0.5,1.9c-0.2,1.3-0.2,2.6,0.1,3.8
	c0.3,1.6,1,3.1,1.9,4.4c0.9,1.3,2.1,2.4,3.6,3.1c1.1,0.6,2.3,1,3.6,1.2c0.7,0.1,1.3,0.2,2,0.1h177.4c0.1,0,0.2,0,0.3,0
	c0.6,0,1.2,0,1.7-0.1c1.3-0.2,2.5-0.6,3.6-1.2c1.4-0.8,2.7-1.9,3.6-3.2c0.9-1.3,1.6-2.8,1.9-4.4c0.2-1.2,0.3-2.5,0.1-3.8
	C225.8,458,225.6,457.4,225.4,456.8L225.4,456.8z M35.4,44.6c0-4.4,2.7-8.4,6.7-10.1l80.3-33.6c2.7-1.1,5.8-1.1,8.5,0L211,34.4
	c3.1,1.2,5.6,3.9,6.5,7.3l10.6,38.8c1.6,5.9-1.8,11.9-7.7,13.5c-5.9,1.6-11.9-1.8-13.5-7.7l-7.3-26.7l-19.2,8
	c0.1,0.7,0.2,1.5,0.2,2.2v58.3c0,0.2,0,0.5,0,0.7c0,0.5,0,1,0,1.5c0,29.8-24.2,54-54.1,54c-29.8,0-54.1-24.3-54.1-54
	c0-0.5,0-1,0-1.5c0-0.2,0-0.5,0-0.7v-20.7c0-6.1,4.9-11,11-11c6.1,0,11,4.9,11,11v9.7h64.1V76.7l-27.8,11.6c-2.7,1.1-5.8,1.1-8.5,0
	L42.1,54.8C38.1,53,35.4,49,35.4,44.6L35.4,44.6z M157.5,139.1H95.8c3.8,13.4,16.2,23.3,30.8,23.3
	C141.3,162.4,153.7,152.6,157.5,139.1L157.5,139.1z M74.9,44.6l51.8,21.7l51.8-21.7l-51.8-21.7L74.9,44.6z M74.9,44.6"/>
</svg>
