<?xml version="1.0" encoding="utf-8"?>
<!-- Generator: Adobe Illustrator 21.0.0, SVG Export Plug-In . SVG Version: 6.00 Build 0)  -->
<svg version="1.1" id="Слой_1" xmlns="http://www.w3.org/2000/svg" xmlns:xlink="http://www.w3.org/1999/xlink" x="0px" y="0px"
	 viewBox="0 0 512 512" style="enable-background:new 0 0 512 512;" xml:space="preserve">
<path d="M258.5,190.9c2.7,5.4,0.5,11.9-4.8,14.6L179.2,243c-2.8,1.4-6.1,1.5-9,0.3c-2.9-1.2-5.2-3.6-6.2-6.6
	c-4.3-12.9-11-30.3-21.8-40.1c-8.9,5-20.8,7.9-33.4,7.9c-12.7,0-24.6-2.9-33.4-7.9c-10.8,9.8-17.5,27.1-21.8,40.1L25.8,320
	c-1.5,4.6-5.8,7.4-10.3,7.4c-1.1,0-2.3-0.2-3.4-0.6c-5.7-1.9-8.8-8-6.9-13.7l27.7-83.3c6.5-19.6,16.6-43.7,36.3-55.6
	c1.9-1.1,4-1.6,6-1.6c2.7-0.1,5.5,0.8,7.7,2.8c4,3.6,13.5,7.3,25.9,7.3s21.9-3.7,25.9-7.3c2.2-2,5-3,7.7-2.8c2-0.1,4.1,0.4,6,1.6
	c15.9,9.6,25.5,27.1,32,43.8l63.5-32C249.3,183.4,255.8,185.5,258.5,190.9L258.5,190.9z M10.8,169.9C4.9,169.9,0,165,0,159
	s4.9-10.8,10.8-10.8c13.8,0,26.7-14.1,28.3-30.7L41.2,95c0.8-9.1,1.5-15,2.1-17.3c4.8-17.5,20.9-29.8,39.1-29.8c0,0,0.1,0,0.1,0
	c1.5,0,3,0.3,4.3,0.9c1.3,0.6,2.5,1.4,3.5,2.5l0,0c0,0,0,0,0,0c0.1,0.1,0.1,0.1,0.2,0.2l21.8,24.2c21.8,2.5,38.8,21.1,38.8,43.6
	c0,24.2-19.7,43.8-43.8,43.8c-24.2,0-43.8-19.7-43.8-43.8c0-17,9.7-31.7,23.8-39l-9.2-10.2c-6.5,1.6-11.9,6.6-13.8,13.2
	c-0.3,1.7-1,8.3-1.5,13.6l-2.1,22.6C58.1,147.3,35.7,169.9,10.8,169.9L10.8,169.9z M85.2,119.2c0,12.2,9.9,22.1,22.1,22.1
	c12.2,0,22.1-9.9,22.1-22.1c0-12.2-9.9-22.1-22.1-22.1c0,0,0,0-0.1,0C95.1,97.1,85.2,107,85.2,119.2L85.2,119.2z M177.5,132.1
	c1.7,1,3.6,1.5,5.5,1.5c1.8,0,3.7-0.5,5.3-1.4l15.4-8.6h42.5c6,0,10.8-4.9,10.8-10.8c0-6-4.9-10.8-10.8-10.8h-45.3
	c-1.9,0-3.7,0.5-5.3,1.4l-1.7,0.9V66.6c0-1.5,1.2-2.7,2.7-2.7h13.4c6,0,10.9-4.9,10.9-10.8c0-6-4.9-10.8-10.9-10.8h-13.4
	c-13.5,0-24.4,10.9-24.4,24.4v56.1C172.2,126.6,174.2,130.1,177.5,132.1L177.5,132.1z M147.6,231.8c-1.2-5.9-6.9-9.7-12.8-8.5
	c-5.9,1.2-9.7,6.9-8.5,12.8l26.5,129.5H84.6L110,283c0.5-1.7,0.6-3.5,0.3-5.2l-8.8-45.8c-1.1-5.9-6.8-9.7-12.7-8.6
	c-5.9,1.1-9.7,6.8-8.6,12.7l8.3,43.2l-28.8,93.9c-0.2,0.6-0.3,1.2-0.4,1.8c-0.2,1.3-0.2,2.5,0.1,3.7c0.3,1.6,1,3.1,1.9,4.3
	c0.9,1.3,2.2,2.4,3.6,3.1c1.1,0.6,2.2,1,3.5,1.2c0.6,0.1,1.3,0.1,1.9,0.1H97l-33.3,84.7l-18.3,12.8c-4.9,3.4-6.1,10.2-2.6,15.1
	c3.4,4.9,10.2,6.1,15.1,2.6L78.7,488c0.9-0.6,1.7-1.4,2.4-2.2c0.7-0.9,1.3-1.9,1.6-2.9l37.5-95.6h6.9l0.6,91.8
	c0,3.4,1.6,6.4,4.1,8.4c0.5,0.6,1.1,1.1,1.8,1.6l21,14.7c1.9,1.3,4.1,2,6.2,2c3.4,0,6.8-1.6,8.9-4.6c3.4-4.9,2.3-11.7-2.6-15.1
	l-17.6-12.4l-0.6-86.4h17c0.4,0,0.9,0,1.3-0.1c1.4-0.1,2.7-0.5,3.9-1.1c1.1-0.6,2.1-1.3,3-2.2c1.4-1.5,2.4-3.5,2.8-5.6
	c0.1-0.8,0.2-1.6,0.1-2.4c0-0.6-0.1-1.3-0.3-1.9L147.6,231.8z M479.1,229.8c-6.5-19.6-16.6-43.7-36.3-55.6c-1.9-1.1-4-1.6-6-1.6
	c-2.7-0.1-5.5,0.8-7.7,2.8c-4,3.6-13.5,7.3-25.9,7.3s-21.9-3.7-25.9-7.3c-2.2-2-5-2.9-7.7-2.8c-2-0.1-4.1,0.4-6,1.6
	c-19.7,11.9-29.7,36-36.3,55.6l-34.2,102.9c-1.9,5.7,1.2,11.8,6.9,13.7c1.1,0.4,2.3,0.6,3.4,0.6c4.5,0,8.8-2.9,10.3-7.4l34.2-102.9
	c4.3-12.9,11-30.3,21.8-40.1c8.9,5,20.8,7.9,33.4,7.9c12.7,0,24.6-2.9,33.4-7.9c10.8,9.8,17.5,27.1,21.8,40.1l27.7,83.3
	c1.9,5.7,8,8.8,13.7,6.9c5.7-1.9,8.8-8,6.9-13.7L479.1,229.8z M308,87.5h-48.3c-13.5,0-24.4-10.9-24.4-24.4V30.6
	c0-13.5,10.9-24.4,24.4-24.4h60.6c13.5,0,24.4,10.9,24.4,24.4v69.1c0,4.5-2.8,8.5-6.9,10.1c-1.3,0.5-2.6,0.7-3.9,0.7
	c-3,0-5.9-1.2-8-3.5L308,87.5z M259.7,65.8h53.1c3,0,6,1.3,8,3.5l2.1,2.4V30.6c0-1.5-1.2-2.7-2.7-2.7h-60.6c-1.5,0-2.7,1.2-2.7,2.7
	v32.6C257,64.6,258.2,65.8,259.7,65.8L259.7,65.8z M512,159c0,6-4.9,10.8-10.8,10.8c-18.2,0-34.3-12.3-39.1-29.8
	c-0.6-2.3-1.4-8.2-2.1-17.4l-2.1-22.3c-1.4-14.9-11.9-27.7-23.9-30.3l-9.2,10.2c14.1,7.3,23.8,22,23.8,39
	c0,24.2-19.7,43.8-43.8,43.8c-24.2,0-43.8-19.7-43.8-43.8c0-22.5,17-41,38.8-43.6l21.8-24.2c0.1-0.1,0.1-0.1,0.2-0.2l0,0
	c0,0,0,0,0,0c1-1.1,2.2-1.9,3.4-2.4c1.3-0.6,2.8-1,4.4-1c0,0,0.1,0,0.1,0c24.9,0,47.2,22.6,49.8,50.4l2.1,22.4
	c0.5,5.4,1.1,12.1,1.5,13.8c2.3,8.1,9.7,13.7,18.2,13.7C507.1,148.2,512,153,512,159L512,159z M404.7,97.1
	C404.7,97.1,404.7,97.1,404.7,97.1c-12.3,0-22.2,9.9-22.2,22.1c0,12.2,9.9,22.1,22.2,22.1c12.2,0,22.1-9.9,22.1-22.1
	C426.8,107,416.9,97.1,404.7,97.1L404.7,97.1z M466.6,484.9l-18.3-12.8L415,387.3h26.8c0.6,0,1.3,0,1.9-0.1c1.2-0.2,2.4-0.6,3.5-1.2
	c1.5-0.8,2.7-1.9,3.6-3.1c0.9-1.3,1.6-2.7,1.9-4.3c0.2-1.2,0.3-2.5,0.1-3.7c-0.1-0.6-0.2-1.2-0.4-1.8l-28.8-93.9l8.3-43.2
	c1.1-5.9-2.7-11.6-8.6-12.7c-5.9-1.1-11.6,2.7-12.7,8.6l-8.8,45.8c-0.3,1.7-0.2,3.5,0.3,5.2l25.4,82.6h-28.2c-0.1,0-0.1,0-0.2,0
	h-39.8l26.5-129.5c1.2-5.9-2.6-11.6-8.5-12.8c-5.9-1.2-11.6,2.6-12.8,8.5L335.3,374c-0.2,0.8-0.3,1.6-0.3,2.5c0,0.1,0,0.2,0,0.3
	c0,0.1,0,0.2,0,0.2c0,0,0,0,0,0c0,0,0,0,0,0v0c0.2,2.9,1.5,5.5,3.5,7.3c0.6,0.5,1.2,1,1.9,1.4c1.3,0.8,2.8,1.3,4.4,1.4
	c0.4,0,0.8,0,1.3,0h17l-0.6,86.4l-17.6,12.4c-4.9,3.4-6.1,10.2-2.6,15.1c2.1,3,5.5,4.6,8.9,4.6c2.2,0,4.3-0.6,6.2-2l21-14.7
	c0.7-0.5,1.3-1,1.8-1.6c2.5-2,4-5,4.1-8.4l0.6-91.8h6.9l37.5,95.6c0.4,1,0.9,2,1.6,2.8c0.7,0.9,1.5,1.7,2.5,2.3l20.8,14.6
	c4.9,3.4,11.7,2.3,15.1-2.6C472.7,495.1,471.5,488.4,466.6,484.9L466.6,484.9z M466.6,484.9"/>
</svg>
