<?xml version="1.0" encoding="utf-8"?>
<!-- Generator: Adobe Illustrator 21.0.0, SVG Export Plug-In . SVG Version: 6.00 Build 0)  -->
<svg version="1.1" id="Слой_1" xmlns="http://www.w3.org/2000/svg" xmlns:xlink="http://www.w3.org/1999/xlink" x="0px" y="0px"
	 viewBox="0 0 349.9 512" style="enable-background:new 0 0 349.9 512;" xml:space="preserve">
<path d="M84.6,56.7c-6.3,8.2-9.9,18.5-9.9,29c0,26.2,21.3,47.6,47.6,47.6c20.2,0,37.5-12.4,44.4-30.4c4.3,1.2,8.5,2.2,12.5,2.8
	c5,0.8,9.3,1.2,13.2,1.2c15.8,0,23-6.3,26.2-12.2c6.6-12.2-0.2-28.6-19.2-46.2c-0.3-0.2-0.5-0.5-0.8-0.7
	c-0.5-17.2-10.9-31-23.9-38.5c-13.3-7.7-31.2-9.7-46.1-2.4C97.1-3.9,74.8-2,67.1,12.1C60,25.2,68.7,41.4,84.6,56.7L84.6,56.7z
	 M146.4,95.8c-4,9.5-13.3,16-24.2,16c-14.4,0-26.2-11.7-26.2-26.2c0-5.6,1.8-10.9,4.9-15.3c4.4,3.2,9.1,6.4,14,9.4
	c0,0,0.1,0,0.1,0.1c1,0.6,2,1.2,3.1,1.8c0.1,0.1,0.2,0.1,0.3,0.2c1,0.6,1.9,1.1,2.9,1.7c0.2,0.1,0.3,0.2,0.5,0.3
	c1.1,0.6,2.2,1.3,3.4,1.9c1.6,0.8,3.1,1.7,4.7,2.5c0.4,0.2,0.9,0.4,1.3,0.7c1.5,0.7,2.9,1.5,4.4,2.2c0.2,0.1,0.5,0.2,0.7,0.3
	c1.4,0.7,2.8,1.3,4.1,1.9c0.5,0.2,0.9,0.4,1.4,0.6C143.3,94.5,144.8,95.2,146.4,95.8C146.4,95.8,146.4,95.8,146.4,95.8L146.4,95.8z
	 M111.1,24c-0.8,3.9,0.6,8,3.9,10.6c4.7,3.6,11.4,2.8,15-1.9c9-11.6,23.9-10.6,33.9-4.8c4.6,2.6,18.8,12.7,10.9,32.1
	c-2.2,5.5,0.4,11.7,5.8,13.9c1.3,0.5,2.7,0.8,4,0.8c2.7,0,5.4-1.1,7.4-3c5.9,6.8,7.4,11.2,7.5,12.7c-3.3,2-16.5,2-36.4-5
	c-0.2-0.1-0.4-0.2-0.6-0.3c-8.9-3.2-18-7.3-27.1-12.3c-1.3-0.7-2.6-1.4-3.8-2.1c-0.1-0.1-0.2-0.1-0.2-0.1
	c-9-5.2-17.4-10.9-24.5-16.7c-0.2-0.1-0.4-0.3-0.5-0.4C92.2,35.8,86.1,26,86,22.5C88.3,21.1,96.7,20.3,111.1,24L111.1,24z
	 M194.8,506.2c-2.1,3-5.4,4.5-8.8,4.5c-2.1,0-4.3-0.6-6.1-1.9l-23.4-16.5c-0.3-0.2-0.7-0.5-1-0.8c-0.1-0.1-0.2-0.2-0.2-0.2
	c-0.3-0.3-0.6-0.6-0.8-0.8c-0.1-0.1-0.1-0.2-0.2-0.2c-0.3-0.4-0.6-0.8-0.8-1.2c0-0.1-0.1-0.2-0.1-0.2c-0.2-0.4-0.4-0.8-0.6-1.3
	c0,0,0,0,0-0.1l0-0.1c0,0,0,0,0,0l-42.3-107.8h-10.1l-0.7,104c0,3.4-1.6,6.4-4.1,8.3c-0.5,0.6-1.1,1.2-1.8,1.6l-23.4,16.5
	c-1.9,1.3-4,1.9-6.1,1.9c-3.4,0-6.7-1.6-8.8-4.5c-3.4-4.8-2.2-11.5,2.6-14.9l20.3-14.3l0.7-98.7H58.3c0,0,0,0-0.1,0
	c-0.4,0-0.7,0-1.1-0.1c-1.1-0.1-2.1-0.4-3.1-0.8c-0.1,0-0.2-0.1-0.3-0.1c-0.2-0.1-0.4-0.2-0.7-0.3c-0.2-0.1-0.3-0.2-0.5-0.3
	c-0.1-0.1-0.2-0.1-0.4-0.2c-0.2-0.1-0.4-0.3-0.5-0.4c-0.1-0.1-0.2-0.1-0.3-0.2c-0.2-0.1-0.3-0.3-0.5-0.4c-0.1-0.1-0.2-0.2-0.3-0.3
	c-0.1-0.1-0.2-0.3-0.4-0.4c-0.1-0.1-0.2-0.2-0.3-0.4c-0.1-0.1-0.2-0.2-0.3-0.4c-0.1-0.2-0.2-0.3-0.4-0.5c-0.1-0.1-0.1-0.2-0.2-0.3
	c-0.1-0.2-0.2-0.4-0.3-0.6c-0.1-0.1-0.1-0.2-0.1-0.3c-0.1-0.2-0.2-0.4-0.3-0.7c0-0.1-0.1-0.2-0.1-0.3c-0.1-0.2-0.2-0.4-0.2-0.6
	c-0.1-0.2-0.1-0.4-0.2-0.6c0-0.1-0.1-0.3-0.1-0.4c-0.2-1-0.3-2.1-0.2-3.2c0-0.4,0.1-0.8,0.2-1.1l32.5-159.2
	c1.2-5.8,6.8-9.5,12.6-8.3c5.8,1.2,9.5,6.8,8.3,12.6L71.3,358.2h80L122.3,264c-0.5-1.7-0.6-3.4-0.3-5.2l9.8-51.2
	c1.1-5.8,6.7-9.6,12.5-8.5c5.8,1.1,9.6,6.7,8.5,12.5l-9.3,48.6l32.4,105.4c0.1,0.4,0.2,0.7,0.3,1.1c0,0.2,0.1,0.4,0.1,0.6
	c0,0.2,0.1,0.3,0.1,0.5c0.1,1.1,0.1,2.2-0.2,3.2c0,0.2-0.1,0.4-0.2,0.6c0,0.1-0.1,0.3-0.1,0.4c-0.1,0.3-0.2,0.5-0.3,0.8
	c0,0.1,0,0.1-0.1,0.2c-0.1,0.2-0.2,0.5-0.3,0.7c0,0.1-0.1,0.2-0.1,0.2c-0.1,0.2-0.2,0.4-0.3,0.6c-0.1,0.1-0.1,0.2-0.2,0.3
	c-0.1,0.1-0.2,0.3-0.3,0.4c-0.1,0.1-0.2,0.3-0.3,0.4c-0.1,0.1-0.2,0.2-0.2,0.3c-0.1,0.2-0.3,0.3-0.5,0.5c-0.1,0.1-0.1,0.1-0.2,0.2
	c-0.2,0.2-0.4,0.4-0.6,0.5c0,0-0.1,0.1-0.1,0.1c-0.2,0.2-0.4,0.3-0.7,0.5c-0.1,0.1-0.2,0.1-0.3,0.2c-0.2,0.1-0.4,0.3-0.6,0.4
	c-1,0.6-2.2,1-3.4,1.1c-0.1,0-0.2,0-0.4,0.1c-0.4,0.1-0.9,0.1-1.3,0.1c0,0-0.1,0-0.1,0c0,0,0,0-0.1,0h-32.3l38.1,97.1l20.8,14.6
	C197.1,494.7,198.2,501.3,194.8,506.2L194.8,506.2z M348.3,463l-25-80.2c-5.4-17.3-23.3-30.8-40.8-30.8h-30l-11.7-38.2h3.2
	c5.9,0,10.7-4.8,10.7-10.7c0-5.9-4.8-10.7-10.7-10.7h-9.9l-28.7-86.9c-7.2-21.7-18.3-48.3-39.9-61.4c-1.8-1.1-3.9-1.6-5.9-1.5
	c-2.7-0.1-5.5,0.8-7.7,2.8c-4.3,3.9-14.7,8.6-29.9,8.6c-15.2,0-25.6-4.6-29.9-8.6c-2.2-2-5-2.9-7.7-2.8c-2-0.1-4,0.4-5.9,1.5
	c-21.6,13.1-32.7,39.7-39.9,61.4l-38.3,115c-1.9,5.6,1.2,11.6,6.8,13.5c1.1,0.4,2.3,0.6,3.4,0.6c4.5,0,8.7-2.8,10.1-7.3l38.3-115
	c5-14.9,12.8-35.1,25.6-46.1c9.8,5.8,23.2,9.2,37.5,9.2c14.4,0,27.8-3.4,37.5-9.2c12.8,11,20.6,31.2,25.6,46.1l26.4,80.2h-2.2
	c-5.9,0-10.7,4.8-10.7,10.7c0,5.9,4.8,10.7,10.7,10.7h9l11.7,38.3c-8.2,0.7-15.3,4.5-19.9,10.7c-5.3,7.2-6.6,16.8-3.6,26.3l25,80.2
	c4.9,15.8,20.3,28.5,36.3,30.5l1,3.3c1.4,4.6,5.6,7.5,10.2,7.5c1.1,0,2.1-0.2,3.2-0.5c4.5-1.4,7.4-5.5,7.5-10h21.1l1,3
	c1.4,4.6,5.6,7.5,10.2,7.5c1.1,0,2.1-0.2,3.2-0.5c5.1-1.6,8.2-6.8,7.3-11.9c4.8-1.8,8.9-4.8,11.9-8.9
	C350,482.2,351.3,472.6,348.3,463L348.3,463z M252.2,463l-25-80.2c-0.9-3-0.8-5.7,0.4-7.3c1.3-1.7,3.7-2.1,5.4-2.1h11.6
	c0,0,0,0,0.1,0c0,0,0,0,0,0h37.8c8.1,0,17.8,7.5,20.4,15.8l25,80.2c0.9,3,0.8,5.7-0.4,7.3c-1.3,1.7-3.7,2.1-5.4,2.1h-49.5
	C264.5,478.8,254.8,471.3,252.2,463L252.2,463z M252.2,463"/>
</svg>
